<svg width="25" height="25" viewBox="0 0 25 25" fill="none" xmlns="http://www.w3.org/2000/svg">
<path d="M23.9582 11.4583V18.9583C23.9283 19.7587 23.5829 20.5148 22.9973 21.0613C22.4118 21.6078 21.6337 21.9003 20.8332 21.875H4.1665C3.36595 21.9003 2.58791 21.6078 2.00237 21.0613C1.41683 20.5148 1.07138 19.7587 1.0415 18.9583V11.4583C1.0415 11.1821 1.15125 10.9171 1.3466 10.7218C1.54195 10.5264 1.8069 10.4167 2.08317 10.4167C2.35944 10.4167 2.62439 10.5264 2.81974 10.7218C3.01509 10.9171 3.12484 11.1821 3.12484 11.4583V18.9583C3.15865 19.2042 3.28556 19.4278 3.47939 19.5829C3.67322 19.7379 3.91917 19.8127 4.1665 19.7917H20.8332C21.0805 19.8127 21.3265 19.7379 21.5203 19.5829C21.7141 19.4278 21.841 19.2042 21.8748 18.9583V11.4583C21.8748 11.1821 21.9846 10.9171 22.1799 10.7218C22.3753 10.5264 22.6402 10.4167 22.9165 10.4167C23.1928 10.4167 23.4577 10.5264 23.6531 10.7218C23.8484 10.9171 23.9582 11.1821 23.9582 11.4583ZM9.98942 8.15625L11.4582 6.67708V15.625C11.4582 15.9013 11.5679 16.1662 11.7633 16.3616C11.9586 16.5569 12.2236 16.6667 12.4998 16.6667C12.7761 16.6667 13.0411 16.5569 13.2364 16.3616C13.4318 16.1662 13.5415 15.9013 13.5415 15.625V6.67708L15.0103 8.15625C15.1071 8.25388 15.2223 8.33138 15.3492 8.38426C15.4762 8.43715 15.6123 8.46437 15.7498 8.46437C15.8874 8.46437 16.0235 8.43715 16.1504 8.38426C16.2774 8.33138 16.3926 8.25388 16.4894 8.15625C16.586 8.05892 16.6623 7.94348 16.7142 7.81657C16.766 7.68966 16.7923 7.55376 16.7915 7.41667C16.7923 7.27958 16.766 7.14368 16.7142 7.01676C16.6623 6.88985 16.586 6.77442 16.4894 6.67708L13.2394 3.42708C13.0611 3.24906 12.8242 3.14174 12.5728 3.125H12.3748C12.1664 3.14977 11.9704 3.2369 11.8123 3.375H11.7603L8.51025 6.67708C8.31411 6.87323 8.20391 7.13927 8.20391 7.41667C8.20391 7.69406 8.31411 7.9601 8.51025 8.15625C8.7064 8.3524 8.97244 8.4626 9.24984 8.4626C9.52724 8.4626 9.79327 8.3524 9.98942 8.15625Z" fill="white"/>
</svg>
