<svg width="44" height="44" viewBox="0 0 44 44" fill="none" xmlns="http://www.w3.org/2000/svg">
<g clip-path="url(#clip0_80_570)">
<path d="M3.56566 20.5653C3.52995 20.5653 3.49423 20.5631 3.45797 20.5587C2.97615 20.4999 2.63332 20.0615 2.69211 19.5796C2.95692 17.4128 3.58049 15.3229 4.54634 13.3675C5.48692 11.4633 6.72747 9.73324 8.23393 8.22513C9.74039 6.71757 11.4694 5.47537 13.373 4.53369C15.3273 3.56675 17.4166 2.94098 19.5829 2.67452C20.0642 2.61463 20.5032 2.95746 20.5625 3.43928C20.6219 3.92111 20.2796 4.36008 19.7978 4.41887C11.738 5.41109 5.42209 11.7331 4.43701 19.7928C4.38262 20.2384 4.00353 20.5653 3.56566 20.5653Z" fill="black"/>
<path d="M19.6873 41.2519C19.6516 41.2519 19.6153 41.2497 19.5785 41.2453C17.416 40.9788 15.3305 40.3547 13.379 39.3899C11.4786 38.4505 9.75132 37.2115 8.24651 35.7084C6.74115 34.2052 5.5006 32.4795 4.55892 30.5803C3.59252 28.6304 2.96565 26.546 2.697 24.3841C2.63711 23.9023 2.97884 23.4633 3.46066 23.4034C3.94249 23.3435 4.38146 23.6853 4.44135 24.1671C5.44181 32.2043 11.755 38.5098 19.7933 39.5009C20.2751 39.5602 20.6174 39.9992 20.5581 40.481C20.5031 40.9261 20.124 41.2524 19.6867 41.2524L19.6873 41.2519Z" fill="black"/>
<path d="M24.1359 41.2679C23.6958 41.2679 23.3157 40.9377 23.264 40.4899C23.208 40.0075 23.5541 39.5713 24.0359 39.5158C32.1435 38.5769 38.5094 32.2653 39.5175 24.1666C39.5774 23.6848 40.0175 23.343 40.4982 23.4029C40.98 23.4628 41.3218 23.9018 41.2619 24.3836C40.9916 26.557 40.3598 28.6525 39.3846 30.6105C38.4347 32.5186 37.1826 34.2498 35.664 35.7562C34.1449 37.2633 32.4033 38.5011 30.487 39.4356C28.519 40.3954 26.4165 41.0102 24.2381 41.2624C24.204 41.2662 24.1694 41.2684 24.1359 41.2684V41.2679Z" fill="black"/>
<path d="M40.3936 20.5652C39.9557 20.5652 39.5766 20.2383 39.5223 19.7928C38.5295 11.6693 32.1581 5.34129 24.0286 4.40291C23.5462 4.34742 23.2006 3.9112 23.2561 3.42882C23.3116 2.94645 23.7478 2.60087 24.2302 2.65636C26.413 2.90799 28.5199 3.52387 30.4917 4.48587C32.4113 5.4226 34.1562 6.6637 35.677 8.17511C37.1972 9.68597 38.4493 11.4221 39.3986 13.3351C40.3733 15.2992 41.0018 17.4001 41.2683 19.5791C41.327 20.0609 40.9842 20.4993 40.5024 20.5581C40.4661 20.5625 40.4304 20.5647 40.3947 20.5647L40.3936 20.5652Z" fill="black"/>
<path d="M22.0004 7.25486C21.5147 7.25486 21.1213 6.86149 21.1213 6.37582V0.879044C21.1213 0.393372 21.5147 0 22.0004 0C22.4861 0 22.8794 0.393372 22.8794 0.879044V6.37582C22.8794 6.86149 22.4861 7.25486 22.0004 7.25486Z" fill="#605DCE"/>
<path d="M22.0004 44C21.5147 44 21.1213 43.6066 21.1213 43.1209V37.6242C21.1213 37.1385 21.5147 36.7451 22.0004 36.7451C22.4861 36.7451 22.8794 37.1385 22.8794 37.6242V43.1209C22.8794 43.6066 22.4861 44 22.0004 44Z" fill="#605DCE"/>
<path d="M43.1209 22.8793H37.6242C37.1385 22.8793 36.7451 22.4859 36.7451 22.0003C36.7451 21.5146 37.1385 21.1212 37.6242 21.1212H43.1209C43.6066 21.1212 44 21.5146 44 22.0003C44 22.4859 43.6066 22.8793 43.1209 22.8793Z" fill="#605DCE"/>
<path d="M6.37582 22.8793H0.879044C0.393372 22.8793 0 22.4859 0 22.0003C0 21.5146 0.393372 21.1212 0.879044 21.1212H6.37582C6.86149 21.1212 7.25486 21.5146 7.25486 22.0003C7.25486 22.4859 6.86149 22.8793 6.37582 22.8793Z" fill="#605DCE"/>
<path d="M24.5952 23.4105C24.3573 23.4144 24.1161 23.4039 23.8821 23.3649C23.7601 23.3446 23.6574 23.3051 23.5744 23.249C23.0981 22.4568 23.8288 22.1898 24.304 21.3629C24.4958 21.0289 24.6644 20.6141 24.7974 20.2377C24.8117 20.2147 24.8232 20.1916 24.8309 20.1669C24.8534 20.0905 24.8765 20.0136 24.8996 19.9372C25.0336 19.5241 25.1122 19.2142 25.1122 19.2142C25.1765 18.9758 25.2314 18.7362 25.2655 18.4939C25.4292 17.3292 25.2479 16.2425 24.3513 15.3706C23.4464 14.4904 22.3888 14.0905 21.1571 14.458C19.933 14.8234 19.0759 15.6348 18.7743 16.9023C18.5084 18.0193 18.7364 19.1082 19.143 20.1647C19.1627 20.2158 19.1825 20.2592 19.2061 20.2949C19.3358 20.6553 19.4968 21.0454 19.6792 21.3624C20.1539 22.1892 20.8846 22.4562 20.4088 23.2485H20.4187C20.3681 23.2798 20.3104 23.304 20.2451 23.3199C20.033 23.3704 19.8116 23.3787 19.5946 23.4072C19.1693 23.4638 18.7238 23.46 18.3227 23.5907C16.958 24.0352 16.0603 25.5994 16.246 27.1575H27.7669C27.7669 26.9959 27.7653 26.8514 27.7669 26.707C27.7867 25.3016 26.7187 23.3759 24.5958 23.41L24.5952 23.4105Z" fill="#605DCE" fill-opacity="0.75"/>
<path d="M16.5288 23.6902C16.0365 23.4979 15.8805 23.3501 15.9343 23.0089C15.9695 22.787 16.0656 22.5348 16.2184 22.3777C17.071 21.4992 17.5342 20.4405 17.7177 19.2516C17.916 17.9643 17.6595 16.8293 16.5887 15.9623C14.5147 14.2839 12.0457 15.8865 11.6907 17.6907C11.4919 18.7033 11.6644 19.6828 12.0374 20.6311C12.2989 21.2964 12.6797 21.8865 13.1884 22.3936C13.434 22.6386 13.5345 22.9441 13.4181 23.277C13.3071 23.5935 13.0154 23.6523 12.7214 23.671C12.4467 23.6885 12.1704 23.6863 11.8962 23.7083C10.231 23.8418 9.12174 25.6461 9.37612 27.1602H15.3196C15.236 25.829 15.63 24.6703 16.5288 23.6907V23.6902Z" fill="#605DCE" fill-opacity="0.75"/>
<path d="M34.6608 27.1607C34.6448 26.864 34.6448 26.5811 34.6119 26.3025C34.4762 25.1724 33.5241 23.7022 31.8346 23.6901C31.5781 23.6885 31.3188 23.6824 31.0655 23.644C30.6518 23.5808 30.4403 23.2687 30.5457 22.8644C30.5903 22.6941 30.682 22.515 30.8045 22.3903C31.666 21.5101 32.1423 20.4459 32.3192 19.2433C32.5049 17.9807 32.2714 16.8633 31.2265 15.9925C29.1607 14.2706 26.6131 15.8595 26.3 17.6984C26.0027 19.4433 26.5208 20.9849 27.7048 22.2958C27.9169 22.5309 28.0784 22.7649 28.0603 23.0968C28.0399 23.4682 27.7718 23.588 27.4482 23.6797C28.3602 24.6813 28.7536 25.84 28.6635 27.1607H34.6613H34.6608Z" fill="#605DCE" fill-opacity="0.75"/>
</g>
<defs>
<clipPath id="clip0_80_570">
<rect width="44" height="44" fill="white"/>
</clipPath>
</defs>
</svg>
