<svg width="45" height="48" viewBox="0 0 45 48" fill="none" xmlns="http://www.w3.org/2000/svg">
<g clip-path="url(#clip0_88_563)">
<path d="M39.6215 35.3635H25.9133V33.5908H39.6215C41.591 33.5908 43.1939 32.019 43.1939 30.086V5.27753C43.1939 3.34527 41.5918 1.77272 39.6215 1.77272H14.9312C12.9617 1.77272 11.3589 3.34453 11.3589 5.27753V19.0028H9.552V5.27753C9.552 2.36732 11.9657 0 14.9312 0H39.6215C42.5878 0 45.0008 2.36732 45.0008 5.27753V30.086C45.0008 32.9962 42.5878 35.3635 39.6215 35.3635Z" fill="black"/>
<path d="M44.0965 5.78125H10.4553V7.55397H44.0965V5.78125Z" fill="black"/>
<path d="M15.4116 4.62538C15.8124 4.62538 16.1373 4.30659 16.1373 3.91334C16.1373 3.52009 15.8124 3.20129 15.4116 3.20129C15.0107 3.20129 14.6858 3.52009 14.6858 3.91334C14.6858 4.30659 15.0107 4.62538 15.4116 4.62538Z" fill="black"/>
<path d="M17.8388 4.62538C18.2396 4.62538 18.5646 4.30659 18.5646 3.91334C18.5646 3.52009 18.2396 3.20129 17.8388 3.20129C17.438 3.20129 17.113 3.52009 17.113 3.91334C17.113 4.30659 17.438 4.62538 17.8388 4.62538Z" fill="black"/>
<path d="M20.266 4.62538C20.6669 4.62538 20.9918 4.30659 20.9918 3.91334C20.9918 3.52009 20.6669 3.20129 20.266 3.20129C19.8652 3.20129 19.5403 3.52009 19.5403 3.91334C19.5403 4.30659 19.8652 4.62538 20.266 4.62538Z" fill="black"/>
<path d="M25.5187 13.1831C25.2484 13.1831 25.0293 12.9682 25.0293 12.703V9.1731C25.0293 8.90794 25.2484 8.69299 25.5187 8.69299C25.7889 8.69299 26.008 8.90794 26.008 9.1731V12.703C26.008 12.9682 25.7889 13.1831 25.5187 13.1831Z" fill="black"/>
<path d="M28.5784 14.314C28.473 14.314 28.3668 14.2807 28.2772 14.212C28.0642 14.0488 28.0265 13.7474 28.1929 13.5384L30.4078 10.7567C30.5742 10.5477 30.8814 10.5107 31.0945 10.674C31.3075 10.8372 31.3452 11.1386 31.1788 11.3476L28.9638 14.1293C28.8675 14.2504 28.7237 14.314 28.5776 14.314H28.5784Z" fill="black"/>
<path d="M30.28 17.0529C30.0609 17.0529 29.8607 16.9074 29.8057 16.6887C29.7402 16.4317 29.8998 16.1709 30.1618 16.1067L33.6529 15.2528C33.9149 15.1893 34.1806 15.3452 34.2461 15.6022C34.3116 15.8592 34.152 16.12 33.89 16.1842L30.399 17.0381C30.3591 17.0477 30.3192 17.0521 30.28 17.0521V17.0529Z" fill="black"/>
<path d="M33.189 21.6745C33.1228 21.6745 33.055 21.6612 32.9903 21.6331L29.7033 20.1972C29.4563 20.0894 29.3457 19.8057 29.4556 19.5635C29.5655 19.3212 29.8546 19.2119 30.1015 19.3204L33.3886 20.7563C33.6355 20.8642 33.7462 21.1478 33.6362 21.3901C33.5549 21.5688 33.3765 21.6752 33.189 21.6752V21.6745Z" fill="black"/>
</g>
<path d="M12.4592 23.7398C14.9218 21.2883 17.4033 18.8552 19.8832 16.4214C20.7227 15.5979 21.6585 14.942 22.8766 14.7647C25.8083 14.3378 28.0172 16.8469 27.0197 19.5924C26.702 20.4669 26.0658 21.2654 25.4432 21.99C24.6933 22.8638 23.8034 23.6216 22.8985 24.5036C24.3372 25.7201 25.261 27.0984 24.1994 28.993C24.536 29.3121 24.8552 29.5942 25.1503 29.8986C26.1516 30.9297 26.3632 32.0177 25.7247 33.2904C25.5057 33.7276 25.5734 33.9573 25.9002 34.2875C27.567 35.9694 27.7176 37.6335 26.1546 39.4195C24.615 41.179 22.9369 42.8283 21.2384 44.4437C20.0413 45.5812 18.4694 46.0909 16.8808 46.4942C15.6348 46.8103 14.3835 47.1035 13.1345 47.4071H11.4722C9.98529 47.1235 8.89363 46.2519 7.86672 45.2089C5.85656 43.1681 3.78091 41.1908 1.73838 39.1817C0.623379 38.0856 0.21156 36.8557 1.04423 35.5853C2.56578 33.266 2.59363 30.6209 3.1372 28.0874C3.62356 25.8206 3.91492 23.5086 4.49538 21.2669C4.75587 20.2616 5.35892 19.2438 6.07489 18.4697C7.71539 16.694 10.0779 17.1697 10.8729 19.4373C11.275 20.5829 11.2953 21.8585 11.479 23.0765C11.5415 23.4909 11.5912 24.1719 11.6386 24.5893L12.4592 23.7406V23.7398ZM18.6839 26.2756C19.0257 25.9417 22.437 22.6142 24.28 20.7521C24.7204 20.3074 25.1209 19.7741 25.3694 19.2098C25.73 18.3892 25.6585 17.5508 24.9425 16.8794C24.2597 16.239 23.4375 16.1644 22.6372 16.5352C22.0681 16.7989 21.529 17.1911 21.0795 17.6276C17.6028 21.0039 14.1524 24.4068 10.6892 27.7964C10.4528 28.0283 10.2074 28.3186 9.91226 28.4058C9.64575 28.4841 9.20532 28.4161 9.02538 28.2359C8.84695 28.0571 8.82888 27.6472 8.8733 27.3584C8.90492 27.1545 9.12702 26.9433 9.31749 26.8052C9.95517 26.342 10.1095 25.7652 9.99884 25.0021C9.80761 23.6903 9.73534 22.3623 9.57949 21.0446C9.53432 20.6619 9.41612 20.2742 9.25651 19.9218C8.79651 18.9055 8.05343 18.6972 7.35853 19.537C6.74118 20.2823 6.19234 21.1952 5.96799 22.117C5.42065 24.3684 5.12101 26.6766 4.64294 28.9457C4.12798 31.3891 4.21305 33.9957 2.56502 36.1459C2.06211 36.8018 2.31131 37.4732 2.93318 38.0708C5.17522 40.2254 7.3894 42.4066 9.58777 44.604C10.6117 45.6277 11.8072 45.9653 13.203 45.6433C14.577 45.3264 15.9698 45.0568 17.3024 44.6143C18.2473 44.3004 19.2508 43.892 19.9713 43.2486C21.6276 41.7699 23.1966 40.1818 24.6677 38.5236C25.8633 37.1756 25.6909 36.3439 24.2687 35.1148C23.634 35.6732 22.9828 36.2235 22.3587 36.8018C21.8964 37.2302 21.392 37.5995 20.8665 37.0094C20.3538 36.4325 20.7837 35.9649 21.2429 35.5513C21.9905 34.8784 22.7705 34.2329 23.4579 33.5046C24.6865 32.2023 24.5601 31.3743 23.0498 30.3646C22.327 31.0087 21.5907 31.6476 20.8755 32.308C20.42 32.7283 19.9292 32.9713 19.4406 32.4468C18.9828 31.9549 19.2689 31.5043 19.6935 31.1203C20.3944 30.4865 21.1127 29.869 21.7865 29.2079C23.2945 27.7284 23.2749 27.1228 21.6163 25.6307C20.8462 26.4188 20.1332 27.1678 19.3961 27.8939C19.0205 28.264 18.495 28.3733 18.2096 27.9116C18.2096 27.9116 17.6758 27.2661 18.6854 26.2756H18.6839Z" fill="#605DCE"/>
<defs>
<clipPath id="clip0_88_563">
<rect width="43.6445" height="47.407" fill="white" transform="translate(1.35547)"/>
</clipPath>
</defs>
</svg>
