<svg width="31" height="33" viewBox="0 0 31 33" fill="none" xmlns="http://www.w3.org/2000/svg">
<g clip-path="url(#clip0_80_546)">
<path d="M23.3135 33H7.6858C3.44817 33 0 29.6049 0 25.431V10.041C0 5.86713 3.44817 2.47205 7.6858 2.47205H23.3135C27.5518 2.47205 30.9993 5.86777 30.9993 10.041V25.431C30.9993 29.6049 27.5512 33 23.3135 33ZM7.6858 4.02438C4.3171 4.02438 1.5763 6.7235 1.5763 10.041V25.431C1.5763 28.7485 4.3171 31.4476 7.6858 31.4476H23.3135C26.6822 31.4476 29.423 28.7485 29.423 25.431V10.041C29.423 6.7235 26.6822 4.02438 23.3135 4.02438H7.6858Z" fill="#110707"/>
<path d="M30.2118 12.7971H0.788152C0.352698 12.7971 0 12.4497 0 12.0209C0 11.5921 0.352698 11.2448 0.788152 11.2448H30.2118C30.6473 11.2448 31 11.5921 31 12.0209C31 12.4497 30.6473 12.7971 30.2118 12.7971Z" fill="#110707"/>
<path d="M8.08845 6.49586C7.65299 6.49586 7.30029 6.14853 7.30029 5.7197V0.776166C7.30029 0.347334 7.65299 0 8.08845 0C8.5239 0 8.8766 0.347334 8.8766 0.776166V5.7197C8.8766 6.14853 8.5239 6.49586 8.08845 6.49586Z" fill="#110707"/>
<path d="M23.2294 6.49586C22.794 6.49586 22.4413 6.14853 22.4413 5.7197V0.776166C22.4413 0.347334 22.794 0 23.2294 0C23.6649 0 24.0176 0.347334 24.0176 0.776166V5.7197C24.0176 6.14853 23.6649 6.49586 23.2294 6.49586Z" fill="#110707"/>
<path d="M7.67075 19.8945C8.62874 19.8945 9.40534 19.1297 9.40534 18.1862C9.40534 17.2428 8.62874 16.478 7.67075 16.478C6.71276 16.478 5.93616 17.2428 5.93616 18.1862C5.93616 19.1297 6.71276 19.8945 7.67075 19.8945Z" fill="#0F1114"/>
<path d="M15.2416 19.8945C16.1995 19.8945 16.9761 19.1297 16.9761 18.1862C16.9761 17.2428 16.1995 16.478 15.2416 16.478C14.2836 16.478 13.507 17.2428 13.507 18.1862C13.507 19.1297 14.2836 19.8945 15.2416 19.8945Z" fill="#0F1114"/>
<path d="M22.8119 19.8945C23.7699 19.8945 24.5465 19.1297 24.5465 18.1862C24.5465 17.2428 23.7699 16.478 22.8119 16.478C21.8539 16.478 21.0773 17.2428 21.0773 18.1862C21.0773 19.1297 21.8539 19.8945 22.8119 19.8945Z" fill="#0F1114"/>
<path d="M7.67075 27.1807C8.62874 27.1807 9.40534 26.4159 9.40534 25.4725C9.40534 24.5291 8.62874 23.7643 7.67075 23.7643C6.71276 23.7643 5.93616 24.5291 5.93616 25.4725C5.93616 26.4159 6.71276 27.1807 7.67075 27.1807Z" fill="#0F1114"/>
<path d="M15.2416 27.1807C16.1995 27.1807 16.9761 26.4159 16.9761 25.4725C16.9761 24.5291 16.1995 23.7643 15.2416 23.7643C14.2836 23.7643 13.507 24.5291 13.507 25.4725C13.507 26.4159 14.2836 27.1807 15.2416 27.1807Z" fill="#0F1114"/>
<path d="M22.8119 27.1807C23.7699 27.1807 24.5465 26.4159 24.5465 25.4725C24.5465 24.5291 23.7699 23.7643 22.8119 23.7643C21.8539 23.7643 21.0773 24.5291 21.0773 25.4725C21.0773 26.4159 21.8539 27.1807 22.8119 27.1807Z" fill="#0F1114"/>
</g>
<defs>
<clipPath id="clip0_80_546">
<rect width="31" height="33" fill="white"/>
</clipPath>
</defs>
</svg>
