<svg width="19" height="21" viewBox="0 0 19 21" fill="none" xmlns="http://www.w3.org/2000/svg">
<path d="M17.4167 6.33333C17.8366 6.33333 18.2393 6.15774 18.5363 5.84518C18.8332 5.53262 19 5.10869 19 4.66667V1.33333C19 1.11232 18.9166 0.900358 18.7681 0.744078C18.6197 0.587797 18.4183 0.5 18.2083 0.5C17.9984 0.5 17.797 0.587797 17.6485 0.744078C17.5001 0.900358 17.4167 1.11232 17.4167 1.33333V4.66667H14.25C14.2358 4.66667 14.2247 4.67417 14.2104 4.675C13.8318 3.6875 13.1814 2.84165 12.3428 2.24601C11.5042 1.65038 10.5156 1.33213 9.50396 1.33213C8.4923 1.33213 7.50373 1.65038 6.66512 2.24601C5.82652 2.84165 5.17615 3.6875 4.7975 4.675C4.78088 4.67583 4.76662 4.66667 4.75 4.66667H1.58333V1.33333C1.58333 1.11232 1.49993 0.900358 1.35146 0.744078C1.20299 0.587797 1.00163 0.5 0.791667 0.5C0.581704 0.5 0.38034 0.587797 0.231874 0.744078C0.0834075 0.900358 0 1.11232 0 1.33333L0 4.66667C0 5.10869 0.166815 5.53262 0.463748 5.84518C0.76068 6.15774 1.16341 6.33333 1.58333 6.33333H4.34229L3.54033 9.66667H0.791667C0.581704 9.66667 0.38034 9.75446 0.231874 9.91074C0.0834075 10.067 0 10.279 0 10.5C0 10.721 0.0834075 10.933 0.231874 11.0893C0.38034 11.2455 0.581704 11.3333 0.791667 11.3333H3.13896L3.02417 11.8108L3.00833 11.9167C2.97304 12.2019 2.95453 12.4891 2.95292 12.7767C2.95372 13.4162 3.03979 14.0524 3.20863 14.6667H1.58333C1.16341 14.6667 0.76068 14.8423 0.463748 15.1548C0.166815 15.4674 0 15.8913 0 16.3333L0 19.6667C0 19.8877 0.0834075 20.0996 0.231874 20.2559C0.38034 20.4122 0.581704 20.5 0.791667 20.5C1.00163 20.5 1.20299 20.4122 1.35146 20.2559C1.49993 20.0996 1.58333 19.8877 1.58333 19.6667V16.3333H3.90292C4.48329 17.3501 5.30378 18.1915 6.28458 18.7756C7.26538 19.3598 8.3731 19.6668 9.5 19.6668C10.6269 19.6668 11.7346 19.3598 12.7154 18.7756C13.6962 18.1915 14.5167 17.3501 15.0971 16.3333H17.4167V19.6667C17.4167 19.8877 17.5001 20.0996 17.6485 20.2559C17.797 20.4122 17.9984 20.5 18.2083 20.5C18.4183 20.5 18.6197 20.4122 18.7681 20.2559C18.9166 20.0996 19 19.8877 19 19.6667V16.3333C19 15.8913 18.8332 15.4674 18.5363 15.1548C18.2393 14.8423 17.8366 14.6667 17.4167 14.6667H15.7914C15.9611 14.0511 16.0477 13.4135 16.0487 12.7725C16.0464 12.4863 16.0273 12.2004 15.9917 11.9167L15.8531 11.3333H18.2083C18.4183 11.3333 18.6197 11.2455 18.7681 11.0893C18.9166 10.933 19 10.721 19 10.5C19 10.279 18.9166 10.067 18.7681 9.91074C18.6197 9.75446 18.4183 9.66667 18.2083 9.66667H15.4549L14.6561 6.33333H17.4167ZM9.5 18C8.18342 17.9985 6.92121 17.4472 5.99032 16.4671C5.05943 15.4871 4.53592 14.1584 4.53467 12.7725C4.53576 12.57 4.54818 12.3677 4.57188 12.1667L6.17896 5.475C6.42015 4.75425 6.86706 4.12958 7.45852 3.68651C8.04999 3.24344 8.75709 3.00361 9.48303 2.99987C10.209 2.99613 10.9183 3.22866 11.5138 3.66561C12.1094 4.10257 12.5621 4.7226 12.81 5.44083L14.4281 12.1667C14.4518 12.3671 14.4642 12.5689 14.4653 12.7708C14.4645 14.157 13.9412 15.4862 13.0102 16.4666C12.0793 17.447 10.8168 17.9985 9.5 18Z" fill="#2E4DBA"/>
</svg>
