<svg width="22" height="22" viewBox="0 0 22 22" fill="none" xmlns="http://www.w3.org/2000/svg">
<g clip-path="url(#clip0_1864_13180)">
<path d="M17.5128 3.38086H5.08705C4.56134 3.38086 4.13122 3.81098 4.13122 4.33668V16.7624C4.13122 17.2881 4.56134 17.7182 5.08705 17.7182H17.5128C18.0385 17.7182 18.4686 17.2881 18.4686 16.7624V4.33668C18.4686 3.81098 18.0385 3.38086 17.5128 3.38086ZM15.6011 13.8949C15.6011 14.4206 15.171 14.8508 14.6453 14.8508H7.95452C7.42882 14.8508 6.9987 14.4206 6.9987 13.8949V7.20416C6.9987 6.67846 7.42882 6.24834 7.95452 6.24834H14.6453C15.171 6.24834 15.6011 6.67846 15.6011 7.20416V13.8949Z" fill="#B6DBFF"/>
<path d="M21.3361 7.20189C21.5989 7.20189 21.814 6.98683 21.814 6.72398C21.814 6.46113 21.5989 6.24607 21.3361 6.24607H18.9465V5.29024H21.3361C21.5989 5.29024 21.814 5.07518 21.814 4.81233C21.814 4.54948 21.5989 4.33442 21.3361 4.33442H18.9465C18.9465 3.54586 18.3013 2.90068 17.5128 2.90068V0.511116C17.5128 0.248264 17.2977 0.0332031 17.0349 0.0332031C16.772 0.0332031 16.5569 0.248264 16.5569 0.511116V2.90068H15.6011V0.511116C15.6011 0.248264 15.3861 0.0332031 15.1232 0.0332031C14.8603 0.0332031 14.6453 0.248264 14.6453 0.511116V2.90068H13.6895V0.511116C13.6895 0.248264 13.4744 0.0332031 13.2115 0.0332031C12.9487 0.0332031 12.7336 0.248264 12.7336 0.511116V2.90068H11.7778V0.511116C11.7778 0.248264 11.5627 0.0332031 11.2999 0.0332031C11.037 0.0332031 10.822 0.248264 10.822 0.511116V2.90068H9.86616V0.511116C9.86616 0.248264 9.6511 0.0332031 9.38825 0.0332031C9.12539 0.0332031 8.91033 0.248264 8.91033 0.511116V2.90068H7.95451V0.511116C7.95451 0.248264 7.73945 0.0332031 7.4766 0.0332031C7.21374 0.0332031 6.99868 0.248264 6.99868 0.511116V2.90068H6.04286V0.511116C6.04286 0.248264 5.8278 0.0332031 5.56495 0.0332031C5.30209 0.0332031 5.08703 0.248264 5.08703 0.511116V2.90068C4.29848 2.90068 3.65329 3.54586 3.65329 4.33442H1.26373C1.00088 4.33442 0.785818 4.54948 0.785818 4.81233C0.785818 5.07518 1.00088 5.29024 1.26373 5.29024H3.65329V6.24607H1.26373C1.00088 6.24607 0.785818 6.46113 0.785818 6.72398C0.785818 6.98683 1.00088 7.20189 1.26373 7.20189H3.65329V8.15772H1.26373C1.00088 8.15772 0.785818 8.37278 0.785818 8.63563C0.785818 8.89848 1.00088 9.11354 1.26373 9.11354H3.65329V10.0694H1.26373C1.00088 10.0694 0.785818 10.2844 0.785818 10.5473C0.785818 10.8101 1.00088 11.0252 1.26373 11.0252H3.65329V11.981H1.26373C1.00088 11.981 0.785818 12.1961 0.785818 12.4589C0.785818 12.7218 1.00088 12.9368 1.26373 12.9368H3.65329V13.8927H1.26373C1.00088 13.8927 0.785818 14.1077 0.785818 14.3706C0.785818 14.6334 1.00088 14.8485 1.26373 14.8485H3.65329V15.8043H1.26373C1.00088 15.8043 0.785818 16.0194 0.785818 16.2822C0.785818 16.5451 1.00088 16.7601 1.26373 16.7601H3.65329C3.65329 17.5487 4.29848 18.1939 5.08703 18.1939V20.5835C5.08703 20.8463 5.30209 21.0614 5.56495 21.0614C5.8278 21.0614 6.04286 20.8463 6.04286 20.5835V18.1939H6.99868V20.5835C6.99868 20.8463 7.21374 21.0614 7.4766 21.0614C7.73945 21.0614 7.95451 20.8463 7.95451 20.5835V18.1939H8.91033V20.5835C8.91033 20.8463 9.12539 21.0614 9.38825 21.0614C9.6511 21.0614 9.86616 20.8463 9.86616 20.5835V18.1939H10.822V20.5835C10.822 20.8463 11.037 21.0614 11.2999 21.0614C11.5627 21.0614 11.7778 20.8463 11.7778 20.5835V18.1939H12.7336V20.5835C12.7336 20.8463 12.9487 21.0614 13.2115 21.0614C13.4744 21.0614 13.6895 20.8463 13.6895 20.5835V18.1939H14.6453V20.5835C14.6453 20.8463 14.8603 21.0614 15.1232 21.0614C15.3861 21.0614 15.6011 20.8463 15.6011 20.5835V18.1939H16.5569V20.5835C16.5569 20.8463 16.772 21.0614 17.0349 21.0614C17.2977 21.0614 17.5128 20.8463 17.5128 20.5835V18.1939C18.3013 18.1939 18.9465 17.5487 18.9465 16.7601H21.3361C21.5989 16.7601 21.814 16.5451 21.814 16.2822C21.814 16.0194 21.5989 15.8043 21.3361 15.8043H18.9465V14.8485H21.3361C21.5989 14.8485 21.814 14.6334 21.814 14.3706C21.814 14.1077 21.5989 13.8927 21.3361 13.8927H18.9465V12.9368H21.3361C21.5989 12.9368 21.814 12.7218 21.814 12.4589C21.814 12.1961 21.5989 11.981 21.3361 11.981H18.9465V11.0252H21.3361C21.5989 11.0252 21.814 10.8101 21.814 10.5473C21.814 10.2844 21.5989 10.0694 21.3361 10.0694H18.9465V9.11354H21.3361C21.5989 9.11354 21.814 8.89848 21.814 8.63563C21.814 8.37278 21.5989 8.15772 21.3361 8.15772H18.9465V7.20189H21.3361ZM17.9907 16.7601C17.9907 17.023 17.7756 17.2381 17.5128 17.2381H5.08703C4.82418 17.2381 4.60912 17.023 4.60912 16.7601V4.33442C4.60912 4.07157 4.82418 3.8565 5.08703 3.8565H17.5128C17.7756 3.8565 17.9907 4.07157 17.9907 4.33442V16.7601Z" fill="#63A8F1"/>
<path d="M14.6453 5.76758H7.95451C7.16595 5.76758 6.52077 6.41276 6.52077 7.20132V13.8921C6.52077 14.6807 7.16595 15.3258 7.95451 15.3258H14.6453C15.4338 15.3258 16.079 14.6807 16.079 13.8921V7.20132C16.079 6.41276 15.4338 5.76758 14.6453 5.76758ZM15.1232 13.8921C15.1232 14.1549 14.9081 14.37 14.6453 14.37H7.95451C7.69166 14.37 7.4766 14.1549 7.4766 13.8921V7.20132C7.4766 6.93846 7.69166 6.7234 7.95451 6.7234H14.6453C14.9081 6.7234 15.1232 6.93846 15.1232 7.20132V13.8921Z" fill="#63A8F1"/>
</g>
<defs>
<clipPath id="clip0_1864_13180">
<rect width="21.0282" height="21.0282" fill="white" transform="translate(0.78583 0.0371094)"/>
</clipPath>
</defs>
</svg>
