<svg width="22" height="22" viewBox="0 0 22 22" fill="none" xmlns="http://www.w3.org/2000/svg">
<g clip-path="url(#clip0_1860_13173)">
<path d="M17.1991 3.67969H4.77333C4.24763 3.67969 3.8175 4.10981 3.8175 4.63551V17.0612C3.8175 17.5869 4.24763 18.0171 4.77333 18.0171H17.1991C17.7248 18.0171 18.1549 17.5869 18.1549 17.0612V4.63551C18.1549 4.10981 17.7248 3.67969 17.1991 3.67969ZM15.2874 14.1938C15.2874 14.7195 14.8573 15.1496 14.3316 15.1496H7.64081C7.1151 15.1496 6.68498 14.7195 6.68498 14.1938V7.50299C6.68498 6.97729 7.1151 6.54716 7.64081 6.54716H14.3316C14.8573 6.54716 15.2874 6.97729 15.2874 7.50299V14.1938Z" fill="#F9F9F9"/>
<path d="M21.0224 7.50072C21.2852 7.50072 21.5003 7.28566 21.5003 7.02281C21.5003 6.75996 21.2852 6.5449 21.0224 6.5449H18.6328V5.58907H21.0224C21.2852 5.58907 21.5003 5.37401 21.5003 5.11116C21.5003 4.84831 21.2852 4.63325 21.0224 4.63325H18.6328C18.6328 3.84469 17.9876 3.19951 17.199 3.19951V0.809944C17.199 0.547092 16.984 0.332031 16.7211 0.332031C16.4583 0.332031 16.2432 0.547092 16.2432 0.809944V3.19951H15.2874V0.809944C15.2874 0.547092 15.0723 0.332031 14.8095 0.332031C14.5466 0.332031 14.3316 0.547092 14.3316 0.809944V3.19951H13.3757V0.809944C13.3757 0.547092 13.1607 0.332031 12.8978 0.332031C12.635 0.332031 12.4199 0.547092 12.4199 0.809944V3.19951H11.4641V0.809944C11.4641 0.547092 11.249 0.332031 10.9862 0.332031C10.7233 0.332031 10.5083 0.547092 10.5083 0.809944V3.19951H9.55244V0.809944C9.55244 0.547092 9.33738 0.332031 9.07453 0.332031C8.81168 0.332031 8.59662 0.547092 8.59662 0.809944V3.19951H7.64079V0.809944C7.64079 0.547092 7.42573 0.332031 7.16288 0.332031C6.90003 0.332031 6.68497 0.547092 6.68497 0.809944V3.19951H5.72914V0.809944C5.72914 0.547092 5.51408 0.332031 5.25123 0.332031C4.98838 0.332031 4.77332 0.547092 4.77332 0.809944V3.19951C3.98476 3.19951 3.33958 3.84469 3.33958 4.63325H0.950016C0.687164 4.63325 0.472103 4.84831 0.472103 5.11116C0.472103 5.37401 0.687164 5.58907 0.950016 5.58907H3.33958V6.5449H0.950016C0.687164 6.5449 0.472103 6.75996 0.472103 7.02281C0.472103 7.28566 0.687164 7.50072 0.950016 7.50072H3.33958V8.45655H0.950016C0.687164 8.45655 0.472103 8.67161 0.472103 8.93446C0.472103 9.19731 0.687164 9.41237 0.950016 9.41237H3.33958V10.3682H0.950016C0.687164 10.3682 0.472103 10.5833 0.472103 10.8461C0.472103 11.109 0.687164 11.324 0.950016 11.324H3.33958V12.2798H0.950016C0.687164 12.2798 0.472103 12.4949 0.472103 12.7578C0.472103 13.0206 0.687164 13.2357 0.950016 13.2357H3.33958V14.1915H0.950016C0.687164 14.1915 0.472103 14.4066 0.472103 14.6694C0.472103 14.9323 0.687164 15.1473 0.950016 15.1473H3.33958V16.1032H0.950016C0.687164 16.1032 0.472103 16.3182 0.472103 16.5811C0.472103 16.8439 0.687164 17.059 0.950016 17.059H3.33958C3.33958 17.8475 3.98476 18.4927 4.77332 18.4927V20.8823C4.77332 21.1451 4.98838 21.3602 5.25123 21.3602C5.51408 21.3602 5.72914 21.1451 5.72914 20.8823V18.4927H6.68497V20.8823C6.68497 21.1451 6.90003 21.3602 7.16288 21.3602C7.42573 21.3602 7.64079 21.1451 7.64079 20.8823V18.4927H8.59662V20.8823C8.59662 21.1451 8.81168 21.3602 9.07453 21.3602C9.33738 21.3602 9.55244 21.1451 9.55244 20.8823V18.4927H10.5083V20.8823C10.5083 21.1451 10.7233 21.3602 10.9862 21.3602C11.249 21.3602 11.4641 21.1451 11.4641 20.8823V18.4927H12.4199V20.8823C12.4199 21.1451 12.635 21.3602 12.8978 21.3602C13.1607 21.3602 13.3757 21.1451 13.3757 20.8823V18.4927H14.3316V20.8823C14.3316 21.1451 14.5466 21.3602 14.8095 21.3602C15.0723 21.3602 15.2874 21.1451 15.2874 20.8823V18.4927H16.2432V20.8823C16.2432 21.1451 16.4583 21.3602 16.7211 21.3602C16.984 21.3602 17.199 21.1451 17.199 20.8823V18.4927C17.9876 18.4927 18.6328 17.8475 18.6328 17.059H21.0224C21.2852 17.059 21.5003 16.8439 21.5003 16.5811C21.5003 16.3182 21.2852 16.1032 21.0224 16.1032H18.6328V15.1473H21.0224C21.2852 15.1473 21.5003 14.9323 21.5003 14.6694C21.5003 14.4066 21.2852 14.1915 21.0224 14.1915H18.6328V13.2357H21.0224C21.2852 13.2357 21.5003 13.0206 21.5003 12.7578C21.5003 12.4949 21.2852 12.2798 21.0224 12.2798H18.6328V11.324H21.0224C21.2852 11.324 21.5003 11.109 21.5003 10.8461C21.5003 10.5833 21.2852 10.3682 21.0224 10.3682H18.6328V9.41237H21.0224C21.2852 9.41237 21.5003 9.19731 21.5003 8.93446C21.5003 8.67161 21.2852 8.45655 21.0224 8.45655H18.6328V7.50072H21.0224ZM17.677 17.059C17.677 17.3218 17.4619 17.5369 17.199 17.5369H4.77332C4.51047 17.5369 4.2954 17.3218 4.2954 17.059V4.63325C4.2954 4.37039 4.51047 4.15533 4.77332 4.15533H17.199C17.4619 4.15533 17.677 4.37039 17.677 4.63325V17.059Z" fill="#B0B0B0"/>
<path d="M14.3316 6.06641H7.64079C6.85224 6.06641 6.20705 6.71159 6.20705 7.50014V14.1909C6.20705 14.9795 6.85224 15.6247 7.64079 15.6247H14.3316C15.1201 15.6247 15.7653 14.9795 15.7653 14.1909V7.50014C15.7653 6.71159 15.1201 6.06641 14.3316 6.06641ZM14.8095 14.1909C14.8095 14.4538 14.5944 14.6688 14.3316 14.6688H7.64079C7.37794 14.6688 7.16288 14.4538 7.16288 14.1909V7.50014C7.16288 7.23729 7.37794 7.02223 7.64079 7.02223H14.3316C14.5944 7.02223 14.8095 7.23729 14.8095 7.50014V14.1909Z" fill="#B0B0B0"/>
</g>
<defs>
<clipPath id="clip0_1860_13173">
<rect width="21.0282" height="21.0282" fill="white" transform="translate(0.472115 0.332031)"/>
</clipPath>
</defs>
</svg>
