<svg width="27" height="14" viewBox="0 0 27 14" fill="none" xmlns="http://www.w3.org/2000/svg">
<g clip-path="url(#clip0_1864_13213)">
<path d="M4.39371 9.91797H22.3151V12.3017C22.3151 12.8144 21.8909 13.2373 21.3648 13.2373H5.33864C4.81785 13.2373 4.38834 12.8197 4.38834 12.3017V9.91797H4.39371Z" fill="#B6DBFF"/>
<path d="M21.0373 13.7601H5.76279C4.79102 13.7601 4.00716 12.9831 4.00716 12.0265V10.9694H2.98707C1.7737 10.9694 0.785824 9.99683 0.785824 8.8023V2.25885C0.785824 1.06433 1.7737 0.0917969 2.98707 0.0917969H23.8184C25.0317 0.0917969 26.0196 1.06433 26.0196 2.25885V8.8023C26.0196 9.99683 25.0317 10.9694 23.8184 10.9694H22.7983V12.0265C22.7983 12.9831 22.0091 13.7601 21.0373 13.7601ZM2.98707 1.1489C2.36428 1.1489 1.8596 1.64573 1.8596 2.25885V8.8023C1.8596 9.41542 2.36428 9.91226 2.98707 9.91226H4.54405C4.83934 9.91226 5.08094 10.1501 5.08094 10.4408V12.0265C5.08094 12.3964 5.38696 12.703 5.76279 12.703H21.0373C21.4131 12.703 21.7245 12.4017 21.7245 12.0265V10.4408C21.7245 10.1501 21.9661 9.91226 22.2614 9.91226H23.8184C24.4412 9.91226 24.9458 9.41542 24.9458 8.8023V2.25885C24.9458 1.64573 24.4412 1.1489 23.8184 1.1489H2.98707Z" fill="#63A8F1"/>
<path d="M8.45261 7.15092C8.15732 7.15092 7.91572 6.91307 7.91572 6.62237V4.52931C7.91572 4.44474 7.84592 4.38132 7.76539 4.38132H6.17619C6.09029 4.38132 6.02587 4.45003 6.02587 4.52931V6.62237C6.02587 6.91307 5.78427 7.15092 5.48898 7.15092C5.19369 7.15092 4.95209 6.91307 4.95209 6.62237V4.52931C4.95209 3.86334 5.49971 3.32422 6.17619 3.32422H7.76539C8.44187 3.32422 8.98949 3.86334 8.98949 4.52931V6.62237C8.98949 6.91307 8.74789 7.15092 8.45261 7.15092Z" fill="#63A8F1"/>
<path d="M14.8845 7.15092C14.5892 7.15092 14.3476 6.91307 14.3476 6.62237V4.52931C14.3476 4.44474 14.2779 4.38132 14.1973 4.38132H12.6081C12.5222 4.38132 12.4578 4.45003 12.4578 4.52931V6.62237C12.4578 6.91307 12.2162 7.15092 11.9209 7.15092C11.6256 7.15092 11.384 6.91307 11.384 6.62237V4.52931C11.384 3.86334 11.9316 3.32422 12.6081 3.32422H14.1973C14.8738 3.32422 15.4214 3.86334 15.4214 4.52931V6.62237C15.4214 6.91307 15.1798 7.15092 14.8845 7.15092Z" fill="#63A8F1"/>
<path d="M21.3165 7.15092C21.0212 7.15092 20.7796 6.91307 20.7796 6.62237V4.52931C20.7796 4.44474 20.7098 4.38132 20.6293 4.38132H19.0401C18.9542 4.38132 18.8897 4.45003 18.8897 4.52931V6.62237C18.8897 6.91307 18.6481 7.15092 18.3528 7.15092C18.0576 7.15092 17.816 6.91307 17.816 6.62237V4.52931C17.816 3.86334 18.3636 3.32422 19.0401 3.32422H20.6293C21.3057 3.32422 21.8534 3.86334 21.8534 4.52931V6.62237C21.8534 6.91307 21.6118 7.15092 21.3165 7.15092Z" fill="#63A8F1"/>
<path d="M8.29691 13.7591C8.00162 13.7591 7.76002 13.5213 7.76002 13.2306V10.5403C7.76002 10.2496 8.00162 10.0117 8.29691 10.0117C8.5922 10.0117 8.8338 10.2496 8.8338 10.5403V13.2306C8.8338 13.5213 8.5922 13.7591 8.29691 13.7591Z" fill="#63A8F1"/>
<path d="M11.7491 13.7591C11.4538 13.7591 11.2122 13.5213 11.2122 13.2306V10.5403C11.2122 10.2496 11.4538 10.0117 11.7491 10.0117C12.0444 10.0117 12.286 10.2496 12.286 10.5403V13.2306C12.286 13.5213 12.0444 13.7591 11.7491 13.7591Z" fill="#63A8F1"/>
<path d="M14.8845 13.7591C14.5893 13.7591 14.3477 13.5213 14.3477 13.2306V10.5403C14.3477 10.2496 14.5893 10.0117 14.8845 10.0117C15.1798 10.0117 15.4214 10.2496 15.4214 10.5403V13.2306C15.4214 13.5213 15.1798 13.7591 14.8845 13.7591Z" fill="#63A8F1"/>
<path d="M18.3528 13.7591C18.0576 13.7591 17.816 13.5213 17.816 13.2306V10.5403C17.816 10.2496 18.0576 10.0117 18.3528 10.0117C18.6481 10.0117 18.8897 10.2496 18.8897 10.5403V13.2306C18.8897 13.5213 18.6481 13.7591 18.3528 13.7591Z" fill="#63A8F1"/>
<path d="M22.2614 10.9751H4.54405C4.24876 10.9751 4.00716 10.7372 4.00716 10.4465C4.00716 10.1558 4.24876 9.91797 4.54405 9.91797H22.2614C22.5567 9.91797 22.7983 10.1558 22.7983 10.4465C22.7983 10.7372 22.5567 10.9751 22.2614 10.9751Z" fill="#63A8F1"/>
</g>
<defs>
<clipPath id="clip0_1864_13213">
<rect width="25.2338" height="13.6683" fill="white" transform="translate(0.78583 0.0917969)"/>
</clipPath>
</defs>
</svg>
