<svg width="28" height="28" viewBox="0 0 28 28" fill="none" xmlns="http://www.w3.org/2000/svg">
<rect width="28" height="28" rx="4" fill="#0188F7"/>
<path d="M18.6154 15.3845H9.38462C8.62769 15.3845 8 14.7568 8 13.9998C8 13.2429 8.62769 12.6152 9.38462 12.6152H18.6154C19.3723 12.6152 20 13.2429 20 13.9998C20 14.7568 19.3723 15.3845 18.6154 15.3845Z" fill="#FAFAFA"/>
<path d="M13.9998 20C13.2429 20 12.6152 19.3723 12.6152 18.6154V9.38462C12.6152 8.62769 13.2429 8 13.9998 8C14.7568 8 15.3845 8.62769 15.3845 9.38462V18.6154C15.3845 19.3723 14.7568 20 13.9998 20Z" fill="#FAFAFA"/>
</svg>
