<svg width="23" height="23" viewBox="0 0 23 23" fill="none" xmlns="http://www.w3.org/2000/svg">
<path d="M22.1578 8.69017L14.8889 1.42026C13.9892 0.523246 12.7706 0.0195312 11.5002 0.0195312C10.2298 0.0195312 9.01117 0.523246 8.11153 1.42026L0.84257 8.69017C0.574644 8.95638 0.362224 9.27313 0.217624 9.62204C0.0730234 9.97096 -0.000881028 10.3451 0.000194682 10.7228V20.1308C0.000194682 20.8933 0.303096 21.6245 0.842263 22.1637C1.38143 22.7029 2.1127 23.0058 2.87519 23.0058H20.1252C20.8877 23.0058 21.619 22.7029 22.1581 22.1637C22.6973 21.6245 23.0002 20.8933 23.0002 20.1308V10.7228C23.0013 10.3451 22.9274 9.97096 22.7828 9.62204C22.6382 9.27313 22.4257 8.95638 22.1578 8.69017ZM14.3752 21.0891H8.6252V17.319C8.6252 16.5565 8.9281 15.8252 9.46726 15.2861C10.0064 14.7469 10.7377 14.444 11.5002 14.444C12.2627 14.444 12.994 14.7469 13.5331 15.2861C14.0723 15.8252 14.3752 16.5565 14.3752 17.319V21.0891ZM21.0835 20.1308C21.0835 20.3849 20.9826 20.6287 20.8028 20.8084C20.6231 20.9881 20.3794 21.0891 20.1252 21.0891H16.2919V17.319C16.2919 16.0482 15.787 14.8294 14.8884 13.9308C13.9898 13.0322 12.771 12.5273 11.5002 12.5273C10.2294 12.5273 9.01059 13.0322 8.11198 13.9308C7.21336 14.8294 6.70853 16.0482 6.70853 17.319V21.0891H2.87519C2.62103 21.0891 2.37727 20.9881 2.19755 20.8084C2.01783 20.6287 1.91686 20.3849 1.91686 20.1308V10.7228C1.91775 10.4688 2.01863 10.2254 2.19765 10.0453L9.46661 2.77821C10.0068 2.24052 10.738 1.93866 11.5002 1.93866C12.2624 1.93866 12.9936 2.24052 13.5338 2.77821L20.8027 10.0481C20.9811 10.2276 21.0819 10.4698 21.0835 10.7228V20.1308Z" fill="url(#paint0_linear_6536_1662)"/>
<defs>
<linearGradient id="paint0_linear_6536_1662" x1="11.5002" y1="0.0195312" x2="11.5002" y2="23.0058" gradientUnits="userSpaceOnUse">
<stop stop-color="#01D5EB"/>
<stop offset="1" stop-color="#0166FC"/>
</linearGradient>
</defs>
</svg>
