<svg width="12" height="13" viewBox="0 0 12 13" fill="none" xmlns="http://www.w3.org/2000/svg">
<path d="M3 0.25C2.65482 0.25 2.375 0.529822 2.375 0.875C2.375 1.22018 2.65482 1.5 3 1.5H7.60417C7.94934 1.5 8.22917 1.22018 8.22917 0.875C8.22917 0.529822 7.94934 0.25 7.60417 0.25H3Z" fill="#667085"/>
<path d="M6.125 5.25C6.125 4.90482 5.84518 4.625 5.5 4.625C5.15482 4.625 4.875 4.90482 4.875 5.25V7.74998C4.875 7.91574 4.94085 8.07471 5.05805 8.19192L5.99555 9.12944C6.23963 9.37352 6.63536 9.37352 6.87944 9.12945C7.12352 8.88537 7.12352 8.48964 6.87945 8.24556L6.125 7.4911V5.25Z" fill="#667085"/>
<path fill-rule="evenodd" clip-rule="evenodd" d="M5.5 2.125C2.56599 2.125 0.1875 4.50349 0.1875 7.4375C0.1875 10.3715 2.56599 12.75 5.5 12.75C8.43401 12.75 10.8125 10.3715 10.8125 7.4375C10.8125 6.59144 10.6147 5.79158 10.2629 5.08162C10.2816 5.06675 10.2997 5.05066 10.317 5.03333L10.942 4.40833C11.1861 4.16426 11.1861 3.76853 10.942 3.52445C10.698 3.28037 10.3022 3.28037 10.0582 3.52445L9.56527 4.01734C8.59075 2.86021 7.13124 2.125 5.5 2.125ZM1.4375 7.4375C1.4375 5.19384 3.25634 3.375 5.5 3.375C7.74366 3.375 9.5625 5.19384 9.5625 7.4375C9.5625 9.68116 7.74366 11.5 5.5 11.5C3.25634 11.5 1.4375 9.68116 1.4375 7.4375Z" fill="#667085"/>
</svg>
