<svg width="17" height="17" viewBox="0 0 17 17" fill="none" xmlns="http://www.w3.org/2000/svg">
<path d="M12.5534 1.06253C12.2749 0.79718 11.9049 0.64917 11.5202 0.64917C11.1354 0.64917 10.7655 0.79718 10.4869 1.06253L5.54625 6.00316C5.41395 6.13659 5.25698 6.24304 5.08407 6.3166L2.76782 7.28878C2.55417 7.35736 2.36168 7.47957 2.20874 7.64375C2.05579 7.80793 1.9475 8.00858 1.89421 8.22654C1.84092 8.4445 1.84441 8.67248 1.90434 8.88871C1.96428 9.10493 2.07867 9.30218 2.23657 9.4616L4.49969 11.7247L1.31219 14.9388C1.25658 14.9864 1.21141 15.045 1.17952 15.1109C1.14764 15.1768 1.12972 15.2486 1.12689 15.3218C1.12407 15.3949 1.13639 15.4679 1.1631 15.5361C1.18981 15.6043 1.23032 15.6662 1.28209 15.7179C1.33387 15.7697 1.39578 15.8102 1.46396 15.8369C1.53213 15.8636 1.60509 15.876 1.67825 15.8731C1.75141 15.8703 1.8232 15.8524 1.88911 15.8205C1.95502 15.7886 2.01363 15.7435 2.06125 15.6878L5.27532 12.5003L7.53844 14.7635C7.6595 14.8853 7.80356 14.9818 7.96224 15.0475C8.12093 15.1132 8.29108 15.1466 8.46282 15.146C8.56459 15.1459 8.66607 15.1352 8.76563 15.1141C8.97713 15.0656 9.17307 14.9648 9.3355 14.821C9.49794 14.6771 9.62165 14.4948 9.69532 14.2907L10.6941 11.9372C10.7676 11.7643 10.8741 11.6073 11.0075 11.475L15.9481 6.53441C16.0845 6.3991 16.1927 6.23813 16.2666 6.06079C16.3405 5.88344 16.3785 5.69324 16.3785 5.50113C16.3785 5.30902 16.3405 5.11881 16.2666 4.94147C16.1927 4.76412 16.0845 4.60316 15.9481 4.46785L12.5534 1.06253ZM15.2097 5.76941L10.2691 10.71C10.0462 10.9421 9.86627 11.2119 9.73781 11.5069L8.72313 13.9028C8.70973 13.9427 8.6865 13.9784 8.65559 14.0069C8.62468 14.0353 8.58709 14.0555 8.5463 14.0656C8.50552 14.0757 8.46285 14.0753 8.42226 14.0645C8.38166 14.0537 8.34445 14.0328 8.31406 14.0038L3.00688 8.70722C2.98031 8.6804 2.96064 8.64754 2.94953 8.61146C2.93843 8.57538 2.93623 8.53715 2.94313 8.50003C2.95496 8.45163 2.98016 8.40754 3.01586 8.37278C3.05155 8.33802 3.09631 8.314 3.145 8.30347L5.50375 7.30472C5.79977 7.17812 6.06991 6.99803 6.30063 6.77347L11.2413 1.83285C11.2778 1.79606 11.3212 1.76687 11.3691 1.74695C11.417 1.72703 11.4683 1.71677 11.5202 1.71677C11.572 1.71677 11.6233 1.72703 11.6712 1.74695C11.7191 1.76687 11.7625 1.79606 11.7991 1.83285L15.1991 5.23285C15.2358 5.26938 15.265 5.31284 15.285 5.3607C15.3049 5.40857 15.3151 5.45991 15.3151 5.51175C15.3151 5.5636 15.3049 5.61493 15.285 5.6628C15.265 5.71067 15.2358 5.75412 15.1991 5.79066L15.2097 5.76941Z" fill="#363853"/>
</svg>
