<svg width="26" height="26" viewBox="0 0 26 26" fill="none" xmlns="http://www.w3.org/2000/svg">
<path d="M9.42105 9.81276H15.9554M9.42105 13.5569H13.5792M14.2034 20.504H15.3532C18.4805 20.504 21.201 18.2541 21.935 15.0606C22.2995 13.4747 22.2995 11.8205 21.935 10.2347L21.8388 9.81595C21.1313 6.73788 18.8252 4.34638 15.8862 3.64286L15.4734 3.54403C13.8356 3.15199 12.1348 3.15199 10.4971 3.54403L10.2554 3.60187C7.21158 4.3305 4.82321 6.80736 4.09044 9.99529C3.68975 11.7385 3.69341 13.5727 4.0941 15.3159C4.83833 18.5537 7.02754 21.2483 9.96433 22.5039L10.0923 22.5586C11.3632 23.1019 12.819 22.4476 13.3405 21.1143C13.484 20.7474 13.8258 20.504 14.2034 20.504Z" stroke="white" stroke-width="1.5" stroke-linecap="round"/>
</svg>
