<svg width="18" height="18" viewBox="0 0 18 18" fill="none" xmlns="http://www.w3.org/2000/svg">
<g clip-path="url(#clip0_2326_560)">
<path d="M9 0.28125C4.19239 0.28125 0.28125 4.19239 0.28125 9C0.28125 13.8076 4.19239 17.7188 9 17.7188C13.8076 17.7188 17.7188 13.8076 17.7188 9C17.7188 4.19238 13.8076 0.28125 9 0.28125ZM9 16.0312C5.12292 16.0312 1.96875 12.8771 1.96875 9C1.96875 5.12292 5.12292 1.96875 9 1.96875C12.8771 1.96875 16.0312 5.12292 16.0312 9C16.0312 12.8771 12.8771 16.0312 9 16.0312Z" fill="#363853"/>
<path d="M6.89553 6.8087C6.89553 6.14121 6.35445 5.6001 5.68696 5.6001C5.01947 5.6001 4.47836 6.14121 4.47836 6.8087C4.47836 7.47615 5.01948 8.01726 5.68696 8.01726C6.35445 8.01726 6.89553 7.47615 6.89553 6.8087Z" fill="#363853"/>
<path d="M12.313 5.6001C11.6455 5.6001 11.1045 6.14121 11.1045 6.8087C11.1045 7.47615 11.6455 8.01726 12.313 8.01726C12.9805 8.01726 13.5216 7.47615 13.5216 6.8087C13.5216 6.14121 12.9805 5.6001 12.313 5.6001Z" fill="#363853"/>
<path d="M12.1783 11.556H5.82193C5.35584 11.556 4.97818 11.934 4.97818 12.3998C4.97818 12.8656 5.35584 13.2435 5.82193 13.2435H12.1783C12.6442 13.2435 13.0221 12.8656 13.0221 12.3998C13.0221 11.934 12.6442 11.556 12.1783 11.556Z" fill="#363853"/>
</g>
<defs>
<clipPath id="clip0_2326_560">
<rect width="18" height="18" fill="white"/>
</clipPath>
</defs>
</svg>
