<svg width="28" height="28" viewBox="0 0 28 28" fill="none" xmlns="http://www.w3.org/2000/svg">
<path d="M3.91169 17.5578L4.64187 17.3866L3.91169 17.5578ZM3.91169 10.4422L4.64187 10.6134L3.91169 10.4422ZM24.0883 10.4422L23.3581 10.6135L24.0883 10.4422ZM24.0883 17.5578L24.8185 17.7291L24.0883 17.5578ZM17.5578 24.0883L17.3865 23.3581L17.5578 24.0883ZM10.4422 24.0883L10.2709 24.8185L10.4422 24.0883ZM10.4422 3.91169L10.6134 4.64187L10.4422 3.91169ZM17.5578 3.91169L17.3866 4.64187L17.5578 3.91169ZM13.25 17.641C13.25 18.0552 13.5858 18.391 14 18.391C14.4142 18.391 14.75 18.0552 14.75 17.641H13.25ZM10.359 9.60904C9.94483 9.60904 9.60904 9.94483 9.60904 10.359C9.60904 10.7733 9.94483 11.109 10.359 11.109V9.60904ZM17.641 11.109C18.0552 11.109 18.391 10.7733 18.391 10.359C18.391 9.94483 18.0552 9.60904 17.641 9.60904V11.109ZM4.64187 17.3866C4.11938 15.1591 4.11938 12.8409 4.64187 10.6134L3.18151 10.2709C2.60616 12.7237 2.60616 15.2763 3.18151 17.7291L4.64187 17.3866ZM23.3581 10.6135C23.8806 12.8409 23.8806 15.1591 23.3581 17.3865L24.8185 17.7291C25.3938 15.2763 25.3938 12.7237 24.8185 10.2709L23.3581 10.6135ZM17.3865 23.3581C15.1591 23.8806 12.8409 23.8806 10.6135 23.3581L10.2709 24.8185C12.7237 25.3938 15.2763 25.3938 17.7291 24.8185L17.3865 23.3581ZM10.6134 4.64187C12.8409 4.11938 15.1591 4.11938 17.3866 4.64187L17.7291 3.18151C15.2763 2.60616 12.7237 2.60616 10.2709 3.18151L10.6134 4.64187ZM10.6135 23.3581C7.65044 22.6631 5.3369 20.3496 4.64187 17.3866L3.18151 17.7291C4.00664 21.2468 6.75325 23.9934 10.2709 24.8185L10.6135 23.3581ZM17.7291 24.8185C21.2468 23.9934 23.9934 21.2468 24.8185 17.7291L23.3581 17.3865C22.6631 20.3496 20.3496 22.6631 17.3865 23.3581L17.7291 24.8185ZM17.3866 4.64187C20.3496 5.3369 22.6631 7.65044 23.3581 10.6135L24.8185 10.2709C23.9934 6.75325 21.2468 4.00664 17.7291 3.18151L17.3866 4.64187ZM10.2709 3.18151C6.75325 4.00664 4.00664 6.75324 3.18151 10.2709L4.64187 10.6134C5.3369 7.65044 7.65044 5.3369 10.6134 4.64187L10.2709 3.18151ZM13.25 10.359V17.641H14.75V10.359H13.25ZM14 9.60904H10.359V11.109H14V9.60904ZM14 11.109H17.641V9.60904H14V11.109Z" fill="white"/>
</svg>
