<svg width="534" height="521" viewBox="0 0 534 521" fill="none" xmlns="http://www.w3.org/2000/svg">
<g filter="url(#filter0_d_1268_1096)">
<path d="M334.737 123.789H308.481V347.635C308.481 351.147 307.79 354.625 306.445 357.87C305.101 361.115 303.132 364.063 300.648 366.546C298.165 369.03 295.216 370.999 291.972 372.344C288.727 373.688 285.249 374.379 281.737 374.379H81V374.635C81 378.147 81.6917 381.625 83.0357 384.87C84.3797 388.115 86.3497 391.063 88.8331 393.546C91.3165 396.03 94.2648 397.999 97.5096 399.344C100.754 400.688 104.232 401.379 107.744 401.379H334.737C338.249 401.379 341.727 400.688 344.972 399.344C348.216 397.999 351.165 396.03 353.648 393.546C356.131 391.063 358.101 388.115 359.445 384.87C360.789 381.625 361.481 378.147 361.481 374.635V150.533C361.481 143.44 358.664 136.637 353.648 131.622C348.633 126.606 341.83 123.789 334.737 123.789Z" fill="#F2F2F2"/>
<path d="M459.202 479.515C459.667 479.537 460.127 479.415 460.52 479.166C460.914 478.917 461.221 478.553 461.4 478.124C461.58 477.694 461.623 477.22 461.524 476.766C461.425 476.311 461.189 475.898 460.847 475.582L460.691 474.964C460.712 474.914 460.733 474.865 460.753 474.815C461.221 473.709 462.006 472.766 463.009 472.105C464.011 471.443 465.187 471.093 466.388 471.097C467.589 471.102 468.762 471.461 469.759 472.13C470.757 472.799 471.535 473.748 471.995 474.857C473.833 479.285 476.174 483.721 476.75 488.403C477.004 490.473 476.897 492.571 476.434 494.604C480.752 485.184 482.995 474.945 483.009 464.583C483.01 461.982 482.866 459.384 482.576 456.8C482.337 454.681 482.006 452.578 481.582 450.49C479.267 439.158 474.298 428.538 467.082 419.5C463.589 417.594 460.764 414.664 458.989 411.103C458.345 409.824 457.891 408.457 457.639 407.047C458.033 407.099 459.124 401.099 458.827 400.73C459.376 399.897 460.359 399.483 460.958 398.67C463.941 394.627 468.05 395.333 470.195 400.827C474.777 403.14 474.821 406.975 472.01 410.664C470.221 413.011 469.975 416.186 468.406 418.699C468.567 418.906 468.735 419.106 468.896 419.313C471.848 423.108 474.421 427.184 476.577 431.481C476.053 426.667 476.679 421.797 478.404 417.272C480.152 413.054 483.429 409.502 486.314 405.857C487.078 404.877 488.114 404.146 489.293 403.756C490.471 403.365 491.739 403.333 492.936 403.663C494.133 403.993 495.205 404.67 496.017 405.61C496.829 406.549 497.345 407.708 497.498 408.94C497.504 408.994 497.51 409.047 497.516 409.101C497.087 409.343 496.668 409.6 496.257 409.871C495.741 410.216 495.342 410.708 495.111 411.283C494.879 411.859 494.828 412.491 494.962 413.096C495.096 413.702 495.41 414.253 495.862 414.677C496.315 415.101 496.885 415.378 497.498 415.473L497.561 415.482C497.408 417.027 497.138 418.558 496.753 420.062C500.455 434.378 492.463 439.592 481.052 439.826C480.8 439.955 480.555 440.084 480.303 440.207C482.47 446.348 483.829 452.744 484.346 459.235C484.639 463.064 484.622 466.911 484.294 470.738L484.314 470.602C485.141 466.347 487.41 462.508 490.74 459.732C495.686 455.67 502.673 454.173 508.009 450.908C508.576 450.544 509.235 450.349 509.909 450.348C510.583 450.346 511.243 450.537 511.812 450.899C512.38 451.26 512.834 451.776 513.119 452.387C513.404 452.998 513.508 453.677 513.42 454.345L513.398 454.488C512.603 454.812 511.828 455.185 511.079 455.605C510.651 455.847 510.231 456.103 509.821 456.375C509.305 456.719 508.905 457.212 508.674 457.787C508.443 458.363 508.391 458.995 508.525 459.6C508.659 460.206 508.973 460.757 509.426 461.181C509.879 461.605 510.449 461.882 511.062 461.977L511.125 461.986C511.17 461.993 511.208 461.999 511.254 462.006C509.895 465.251 507.987 468.237 505.615 470.835C503.3 483.332 493.359 484.518 482.725 480.878H482.718C481.552 485.949 479.861 490.884 477.674 495.605H459.654C459.589 495.404 459.531 495.198 459.473 494.997C461.141 495.102 462.815 495.003 464.459 494.701C463.122 493.06 461.785 491.406 460.448 489.766C460.418 489.735 460.39 489.703 460.364 489.669C459.686 488.829 459.001 487.996 458.323 487.157L458.323 487.156C458.287 484.582 458.583 482.014 459.202 479.515Z" fill="#F2F2F2"/>
<path d="M260.724 93.3395C261.382 94.3363 262.249 95.1782 263.264 95.8072C264.28 96.4361 265.419 96.837 266.605 96.9821C267.79 97.1272 268.993 97.013 270.13 96.6476C271.267 96.2821 272.311 95.6739 273.19 94.8653L310.655 111.768L317.878 102.555L273.234 82.8044C271.763 81.4263 269.837 80.6357 267.822 80.5825C265.806 80.5292 263.842 81.2171 262.3 82.5157C260.758 83.8143 259.746 85.6334 259.456 87.6283C259.165 89.6232 259.617 91.6552 260.724 93.3395Z" fill="#A0616A"/>
<path d="M421.508 103.879L425.224 124.936C425.397 125.918 425.363 126.926 425.124 127.894C424.885 128.862 424.446 129.77 423.835 130.559C423.225 131.348 422.456 132 421.578 132.474C420.7 132.948 419.733 133.233 418.739 133.312L355.6 138.277L281.383 105.061L290.248 88.234L354.674 108.636L421.508 103.879Z" fill="#6C63FF"/>
<path d="M273.737 88.7888H46.7441C31.9737 88.7888 20 100.763 20 115.533V339.635C20 354.406 31.9737 366.379 46.7441 366.379H273.737C288.508 366.379 300.481 354.406 300.481 339.635V115.533C300.481 100.763 288.508 88.7888 273.737 88.7888Z" fill="#F2F2F2"/>
<path d="M46.7443 94.2887C43.9544 94.2887 41.1919 94.8382 38.6145 95.9058C36.037 96.9734 33.6951 98.5383 31.7224 100.511C29.7497 102.484 28.1848 104.826 27.1172 107.403C26.0496 109.981 25.5001 112.743 25.5001 115.533V339.635C25.5001 345.27 27.7383 350.673 31.7224 354.657C35.7064 358.641 41.11 360.88 46.7443 360.88H191.617C205.191 360.88 218.632 358.206 231.173 353.011C243.713 347.817 255.108 340.203 264.706 330.605C274.305 321.007 281.918 309.612 287.113 297.071C292.307 284.53 294.981 271.089 294.981 257.515V115.533C294.981 112.743 294.432 109.981 293.364 107.403C292.296 104.826 290.732 102.484 288.759 100.511C286.786 98.5383 284.444 96.9734 281.867 95.9058C279.289 94.8382 276.527 94.2887 273.737 94.2887H46.7443Z" fill="white"/>
<path d="M223.696 162.3H96.2892C95.1202 162.3 93.999 161.836 93.1723 161.009C92.3456 160.182 91.8812 159.061 91.8812 157.892C91.8812 156.723 92.3456 155.602 93.1723 154.775C93.999 153.948 95.1202 153.484 96.2892 153.484H223.696C224.865 153.484 225.986 153.948 226.813 154.775C227.639 155.602 228.104 156.723 228.104 157.892C228.104 159.061 227.639 160.182 226.813 161.009C225.986 161.836 224.865 162.3 223.696 162.3Z" fill="#F2F2F2"/>
<path d="M223.696 256.3H96.2892C95.1202 256.3 93.999 255.836 93.1723 255.009C92.3456 254.182 91.8812 253.061 91.8812 251.892C91.8812 250.723 92.3456 249.602 93.1723 248.775C93.999 247.948 95.1202 247.484 96.2892 247.484H223.696C224.865 247.484 225.986 247.948 226.813 248.775C227.639 249.602 228.104 250.723 228.104 251.892C228.104 253.061 227.639 254.182 226.813 255.009C225.986 255.836 224.865 256.3 223.696 256.3Z" fill="#F2F2F2"/>
<path d="M275.433 209.331H44.5522C43.3831 209.331 42.2619 208.866 41.4352 208.04C40.6086 207.213 40.1442 206.092 40.1442 204.923C40.1442 203.754 40.6086 202.633 41.4352 201.806C42.2619 200.979 43.3831 200.515 44.5522 200.515H275.433C276.602 200.515 277.723 200.979 278.55 201.806C279.376 202.633 279.841 203.754 279.841 204.923C279.841 206.092 279.376 207.213 278.55 208.04C277.723 208.866 276.602 209.331 275.433 209.331Z" fill="#F2F2F2"/>
<path d="M413.531 196.687L390.531 245.687L479.008 236.726L460.539 189.687L413.531 196.687Z" fill="#A0616A"/>
<path d="M434.101 478.32L425.712 478.249L421.999 445.138L434.379 445.243L434.101 478.32Z" fill="#A0616A"/>
<path d="M407.231 491.659C407.223 492.654 407.611 493.61 408.308 494.32C409.005 495.029 409.955 495.433 410.949 495.442L427.628 495.582L430.548 489.663L431.62 495.612L437.913 495.669L436.324 474.452L434.135 474.307L425.204 473.691L422.323 473.498L422.272 479.501L408.874 488.588C408.372 488.929 407.96 489.386 407.674 489.921C407.388 490.456 407.236 491.053 407.231 491.659Z" fill="#2F2E41"/>
<path d="M341.266 478.358L333.268 475.825L339.447 443.085L351.251 446.822L341.266 478.358Z" fill="#A0616A"/>
<path d="M311.663 483.214C311.363 484.162 311.452 485.19 311.91 486.073C312.368 486.956 313.158 487.621 314.105 487.922L330.007 492.956L334.537 488.156L333.814 494.158L339.813 496.061L344.528 475.314L342.477 474.532L334.122 471.319L331.424 470.288L329.612 476.011L314.136 480.761C313.556 480.939 313.028 481.256 312.597 481.683C312.166 482.11 311.846 482.635 311.663 483.214Z" fill="#2F2E41"/>
<path d="M474.979 222.946L394.531 237.687C394.531 237.687 381.628 247.339 385.08 250.796C388.531 254.252 389.067 253.717 386.799 255.985C384.531 258.253 379.628 261.284 379.58 263.268C379.531 265.252 343.531 354.252 343.531 354.252C343.531 354.252 347.531 352.252 344.531 355.252C341.531 358.252 341.531 360.731 341.531 360.731L327.531 455.252L350.268 456.591L372.531 370.418L422.191 289.914C422.191 289.914 427.118 361.703 427.325 366.478C427.531 371.252 430.531 365.252 427.531 371.252C424.531 377.252 422.531 373.252 424.531 377.252C426.531 381.252 417.327 462.687 417.327 462.687H438.08L482.59 293.896C482.59 293.896 498.426 245.64 474.979 222.946Z" fill="#2F2E41"/>
<path d="M451.28 87.9345L419.055 84.5862L410.706 95.4254L400.98 100.606C396.864 102.798 393.466 106.129 391.194 110.201C388.921 114.274 387.87 118.914 388.165 123.568L399.531 189.687C399.531 189.687 389.93 211.306 396.531 216.687C403.132 222.068 382.428 247.707 396.531 241C410.635 234.293 480.531 229.687 480.531 229.687L467.531 192.687L477.243 156.33L478.312 125.844C478.511 120.148 476.821 114.545 473.504 109.909C470.186 105.274 465.429 101.866 459.972 100.217L458.614 99.807L451.28 87.9345Z" fill="#6C63FF"/>
<path d="M495.644 63.2301C495.855 72.3131 492.461 81.1081 487.584 88.8331C486.135 84.3234 483.531 80.2189 480.814 76.3063C482.183 84.7705 480.725 93.4501 476.664 101.002C476.521 101.104 476.373 101.199 476.22 101.287C472.245 103.678 467.206 104.646 462.906 102.919C471.79 93.3425 472.921 77.4754 465.472 66.7336C463.363 63.6856 460.636 60.9899 459.33 57.5211C457.268 51.9866 459.25 45.893 460.501 40.1227C461.67 34.7523 461.875 28.3614 458.272 24.4256C458.657 23.8756 459.181 23.4377 459.791 23.157C460.4 22.8762 461.074 22.7626 461.742 22.8278C463.963 23.1416 465.58 25.0725 466.61 27.0612C467.64 29.0498 468.319 31.2538 469.754 32.9715C472.412 36.1865 476.939 36.9466 480.753 38.641C489.991 42.7556 495.423 53.1232 495.644 63.2301Z" fill="#2F2E41"/>
<path d="M257.651 495.658C257.65 495.815 257.681 495.97 257.74 496.114C257.8 496.259 257.888 496.39 257.998 496.501C258.109 496.611 258.24 496.699 258.385 496.759C258.53 496.818 258.685 496.849 258.841 496.848H512.131C512.447 496.848 512.749 496.723 512.972 496.5C513.196 496.277 513.321 495.974 513.321 495.658C513.321 495.343 513.196 495.04 512.972 494.817C512.749 494.594 512.447 494.468 512.131 494.468H258.841C258.685 494.468 258.53 494.498 258.385 494.558C258.24 494.618 258.109 494.705 257.998 494.816C257.888 494.926 257.8 495.058 257.741 495.202C257.681 495.347 257.65 495.502 257.651 495.658Z" fill="#CCCCCC"/>
<path d="M497.638 273.748C502.609 273.748 506.638 269.718 506.638 264.748C506.638 259.777 502.609 255.748 497.638 255.748C492.668 255.748 488.638 259.777 488.638 264.748C488.638 269.718 492.668 273.748 497.638 273.748Z" fill="#6C63FF"/>
<path d="M417.886 58.0369C418.414 56.1893 414.776 67.4832 416.531 67.6871C424.528 68.6045 435.505 73.3803 441.075 75.6083C441.326 75.5791 441.576 75.55 441.82 75.5136C442.417 75.4481 443 75.3534 443.576 75.2442C456.544 72.7905 461.531 52.8691 461.531 52.6871C461.531 51.7915 459.382 27.1941 455.996 26.8301C455.107 26.7336 454.213 26.685 453.318 26.6845H444.916C443.177 26.3098 441.415 26.0544 439.641 25.92H439.627C422.711 24.6312 409.374 34.9412 410.62 47.4866C410.628 47.5011 410.643 47.5157 410.65 47.5303C411.011 48.0691 411.329 48.5788 411.609 49.0666C411.882 49.5253 412.111 49.9621 412.31 50.3772C413.851 53.5809 409.888 57.6121 412.516 58.3646C416.011 59.3653 403.324 92.2581 417.158 92.2581C410.429 94.1713 416.43 63.1336 417.886 58.0369Z" fill="#2F2E41"/>
<path d="M432.986 77.337C443.973 77.337 452.88 68.4303 452.88 57.4434C452.88 46.4565 443.973 37.5499 432.986 37.5499C421.999 37.5499 413.093 46.4565 413.093 57.4434C413.093 68.4303 421.999 77.337 432.986 77.337Z" fill="#A0616A"/>
<path d="M410.62 48.5715C410.952 48.7462 411.277 48.9063 411.609 49.0666C411.956 49.234 412.302 49.4015 412.649 49.5544C419.311 52.5761 424.733 52.911 428.023 48.5715C428.111 46.2881 428.624 44.0411 429.535 41.9456C429.374 44.2874 429.991 46.6167 431.291 48.5715H437.915C444.739 53.1003 448.243 53.5735 443.507 68.4416C442.186 72.5845 436.936 96.6923 439.001 100.267C439.599 100.202 445.956 73.7963 446.531 73.6871C459.5 71.2334 467.74 49.8675 466.685 48.6588C466.69 45.2217 465.9 41.8301 464.376 38.7492C462.448 34.846 459.443 31.5766 455.716 29.3275C453.494 28.2502 451.178 27.3801 448.796 26.7281C448.737 26.7136 448.685 26.699 448.626 26.6844C447.896 26.4878 447.151 26.3058 446.406 26.1529C444.867 25.8279 443.31 25.5921 441.744 25.4467C441.633 25.4394 441.522 25.4321 441.419 25.4321C440.794 25.4335 440.18 25.602 439.641 25.9199C439.634 25.9199 439.634 25.9272 439.627 25.9272C439.242 26.1521 438.906 26.4516 438.638 26.8082C438.167 27.4081 437.912 28.1496 437.915 28.9124H430.538C430.265 28.9124 429.992 28.9197 429.719 28.9342C424.796 29.1025 420.112 31.102 416.585 34.5414C413.058 37.9808 410.942 42.6126 410.65 47.5303C410.628 47.8797 410.62 48.2219 410.62 48.5715Z" fill="#2F2E41"/>
<path d="M454.117 42.212C461.355 42.212 467.223 36.3442 467.223 29.106C467.223 21.8678 461.355 16 454.117 16C446.878 16 441.011 21.8678 441.011 29.106C441.011 36.3442 446.878 42.212 454.117 42.212Z" fill="#2F2E41"/>
<path d="M497.739 268.459C498.379 267.45 498.792 266.315 498.95 265.131C499.107 263.947 499.006 262.743 498.652 261.602C498.299 260.461 497.702 259.411 496.902 258.524C496.103 257.636 495.121 256.933 494.023 256.463L494.088 215.361L482.723 212.548L483.003 261.366C482.349 263.272 482.417 265.353 483.194 267.213C483.972 269.073 485.404 270.583 487.221 271.458C489.037 272.332 491.111 272.51 493.05 271.957C494.989 271.404 496.657 270.16 497.739 268.459Z" fill="#A0616A"/>
<path d="M441.464 117.477L459.148 105.459C459.973 104.898 460.906 104.516 461.887 104.337C462.869 104.159 463.877 104.187 464.846 104.421C465.816 104.655 466.726 105.089 467.518 105.695C468.31 106.301 468.967 107.067 469.446 107.942L499.849 163.5L499.966 244.811L480.984 243.621L473.191 176.491L441.464 117.477Z" fill="#6C63FF"/>
<path d="M305.645 301.878H116.646C112.535 301.878 108.592 303.511 105.685 306.417C102.779 309.324 101.146 313.267 101.146 317.378C101.146 321.488 102.779 325.431 105.685 328.338C108.592 331.245 112.535 332.878 116.646 332.878H305.645C309.756 332.878 313.699 331.245 316.606 328.338C319.512 325.431 321.145 321.488 321.145 317.378C321.145 313.267 319.512 309.324 316.606 306.417C313.699 303.511 309.756 301.878 305.645 301.878Z" fill="white"/>
<path d="M305.645 333.878H116.646C112.269 333.878 108.073 332.139 104.978 329.045C101.884 325.95 100.146 321.754 100.146 317.378C100.146 313.001 101.884 308.805 104.978 305.71C108.073 302.616 112.269 300.878 116.646 300.878H305.645C310.022 300.878 314.218 302.616 317.313 305.71C320.407 308.805 322.145 313.001 322.145 317.378C322.145 321.754 320.407 325.95 317.313 329.045C314.218 332.139 310.022 333.878 305.645 333.878ZM116.646 302.878C112.8 302.878 109.112 304.405 106.392 307.125C103.673 309.844 102.146 313.532 102.146 317.378C102.146 321.223 103.673 324.911 106.392 327.631C109.112 330.35 112.8 331.878 116.646 331.878H305.645C309.491 331.878 313.179 330.35 315.899 327.631C318.618 324.911 320.145 321.223 320.145 317.378C320.145 313.532 318.618 309.844 315.899 307.125C313.179 304.405 309.491 302.878 305.645 302.878H116.646Z" fill="#6C63FF"/>
<path d="M316.79 369.52H233.384C232.215 369.52 231.093 369.056 230.267 368.229C229.44 367.403 228.976 366.281 228.976 365.112C228.976 363.943 229.44 362.822 230.267 361.995C231.093 361.169 232.215 360.704 233.384 360.704H316.79C317.959 360.704 319.08 361.169 319.907 361.995C320.734 362.822 321.198 363.943 321.198 365.112C321.198 366.281 320.734 367.403 319.907 368.229C319.08 369.056 317.959 369.52 316.79 369.52Z" fill="#6C63FF"/>
</g>
<defs>
<filter id="filter0_d_1268_1096" x="0" y="0" width="533.45" height="520.848" filterUnits="userSpaceOnUse" color-interpolation-filters="sRGB">
<feFlood flood-opacity="0" result="BackgroundImageFix"/>
<feColorMatrix in="SourceAlpha" type="matrix" values="0 0 0 0 0 0 0 0 0 0 0 0 0 0 0 0 0 0 127 0" result="hardAlpha"/>
<feOffset dy="4"/>
<feGaussianBlur stdDeviation="10"/>
<feComposite in2="hardAlpha" operator="out"/>
<feColorMatrix type="matrix" values="0 0 0 0 0.376471 0 0 0 0 0.364706 0 0 0 0 0.807843 0 0 0 0.19 0"/>
<feBlend mode="normal" in2="BackgroundImageFix" result="effect1_dropShadow_1268_1096"/>
<feBlend mode="normal" in="SourceGraphic" in2="effect1_dropShadow_1268_1096" result="shape"/>
</filter>
</defs>
</svg>
