<svg class="carousel__editor__chrome__shell-image" width="408" height="608" viewBox="0 0 408 848" fill="none" xmlns="http://www.w3.org/2000/svg"><path fill-rule="evenodd" clip-rule="evenodd" d="M0 76.8c0-26.883 0-40.324 5.232-50.591A48 48 0 0126.209 5.232C36.475 0 49.916 0 76.8 0h254.4c26.883 0 40.324 0 50.592 5.232a48.003 48.003 0 0120.976 20.977C408 36.475 408 49.916 408 76.8v694.4c0 26.883 0 40.324-5.232 50.592a48.005 48.005 0 01-20.976 20.976C371.524 848 358.083 848 331.2 848H76.8c-26.883 0-40.324 0-50.591-5.232a48.003 48.003 0 01-20.977-20.976C0 811.524 0 798.083 0 771.2V76.8zm24 0c0-4.48 0-6.72.872-8.432a8 8 0 013.496-3.496C30.08 64 32.32 64 36.8 64h334.4c4.48 0 6.721 0 8.432.872a8.002 8.002 0 013.496 3.496C384 70.08 384 72.32 384 76.8v694.4c0 4.48 0 6.721-.872 8.432a8.003 8.003 0 01-3.496 3.496c-1.711.872-3.952.872-8.432.872H36.8c-4.48 0-6.72 0-8.432-.872a8.002 8.002 0 01-3.496-3.496C24 777.921 24 775.68 24 771.2V76.8z" fill="#FAFAFA"></path><path fill-rule="evenodd" clip-rule="evenodd" d="M28.368 783.128C30.08 784 32.32 784 36.8 784h334.4c4.48 0 6.721 0 8.432-.872a8.003 8.003 0 003.496-3.496c.872-1.711.872-3.952.872-8.432V76.8c0-4.48 0-6.72-.872-8.432a8.002 8.002 0 00-3.496-3.496C377.921 64 375.68 64 371.2 64H36.8c-4.48 0-6.72 0-8.432.872a8 8 0 00-3.496 3.496C24 70.08 24 72.32 24 76.8v694.4c0 4.48 0 6.721.872 8.432a8.002 8.002 0 003.496 3.496zM2.648 45.437C2.001 53.34 2 63.326 2 76.8v694.4c0 13.474.002 23.46.647 31.363.644 7.881 1.918 13.516 4.367 18.321a46 46 0 0020.102 20.102c4.805 2.449 10.44 3.723 18.32 4.367 7.904.645 17.89.647 31.364.647h254.4c13.474 0 23.46-.002 31.363-.647 7.881-.644 13.516-1.918 18.321-4.367a46 46 0 0020.102-20.102c2.449-4.805 3.723-10.44 4.367-18.321.645-7.903.647-17.889.647-31.363V76.8c0-13.474-.002-23.46-.647-31.363-.644-7.88-1.918-13.516-4.367-18.32a46 46 0 00-20.102-20.103c-4.805-2.449-10.44-3.723-18.321-4.367C354.66 2.002 344.674 2 331.2 2H76.8c-13.474 0-23.46.002-31.363.647-7.88.644-13.516 1.918-18.32 4.367A46 46 0 007.013 27.116c-2.449 4.805-3.723 10.44-4.367 18.32zm19.468 25.946c.119-1.458.37-2.738.974-3.923a10.001 10.001 0 014.37-4.37c1.185-.604 2.465-.855 3.923-.974C32.798 62 34.547 62 36.714 62h334.572c2.167 0 3.916 0 5.331.116 1.458.119 2.738.37 3.923.974a10 10 0 014.37 4.37c.604 1.185.855 2.465.974 3.923.116 1.416.116 3.164.116 5.331v694.572c0 2.167 0 3.916-.116 5.331-.119 1.458-.37 2.738-.974 3.923a9.998 9.998 0 01-4.37 4.37c-1.185.604-2.465.855-3.923.974-1.416.116-3.165.116-5.333.116H36.716c-2.168 0-3.917 0-5.333-.116-1.458-.119-2.738-.37-3.923-.974a10 10 0 01-4.37-4.37c-.604-1.185-.855-2.465-.974-3.923-.116-1.416-.116-3.164-.116-5.331V76.714c0-2.167 0-3.915.116-5.331zM5.232 26.209C0 36.475 0 49.916 0 76.8v694.4c0 26.883 0 40.324 5.232 50.592a48.003 48.003 0 0020.977 20.976C36.475 848 49.916 848 76.8 848h254.4c26.883 0 40.324 0 50.592-5.232a48.005 48.005 0 0020.976-20.976C408 811.524 408 798.083 408 771.2V76.8c0-26.883 0-40.324-5.232-50.591a48.003 48.003 0 00-20.976-20.977C371.524 0 358.083 0 331.2 0H76.8C49.917 0 36.476 0 26.209 5.232A48 48 0 005.232 26.209z" fill="#E2E3E5"></path><path d="M154 32a4 4 0 014-4h92a4 4 0 010 8h-92a4 4 0 01-4-4zm-71 0a6 6 0 11-12 0 6 6 0 0112 0z" fill="#E2E3E5"></path></svg>