<svg class="carousel__editor__chrome__shell-image" width="419" height="608" fill="none" xmlns="http://www.w3.org/2000/svg" viewBox="0 0 419 856"><path fill-rule="evenodd" clip-rule="evenodd" d="M6.54 32.76C0 45.596 0 62.398 0 96v664c0 33.603 0 50.405 6.54 63.239a59.996 59.996 0 0 0 26.22 26.221C45.596 856 62.398 856 96 856h227c33.603 0 50.405 0 63.239-6.54a59.993 59.993 0 0 0 26.221-26.221C419 810.405 419 793.603 419 760V96c0-33.603 0-50.405-6.54-63.24a59.996 59.996 0 0 0-26.221-26.22C373.405 0 356.603 0 323 0H96C62.397 0 45.595 0 32.76 6.54A60 60 0 0 0 6.54 32.76zm19.82 11.08C22 52.397 22 63.598 22 86v684c0 22.402 0 33.603 4.36 42.16a40.002 40.002 0 0 0 17.48 17.48C52.397 834 63.598 834 86 834h247c22.402 0 33.603 0 42.16-4.36a40.003 40.003 0 0 0 17.48-17.48C397 803.603 397 792.402 397 770V86c0-22.402 0-33.603-4.36-42.16a40.002 40.002 0 0 0-17.48-17.48C366.603 22 355.402 22 333 22h-14.818A8.182 8.182 0 0 0 310 30.182C310 42.232 300.232 52 288.182 52H130.818C118.768 52 109 42.232 109 30.182A8.182 8.182 0 0 0 100.818 22H86c-22.402 0-33.603 0-42.16 4.36a40 40 0 0 0-17.48 17.48z" fill="#FAFAFA"></path><path fill-rule="evenodd" clip-rule="evenodd" d="M2.81 56.755C2.003 66.66 2 79.165 2 96v664c0 16.835.002 29.34.81 39.245.808 9.881 2.41 16.998 5.512 23.086a57.993 57.993 0 0 0 25.347 25.347c6.088 3.103 13.205 4.704 23.086 5.511 9.905.809 22.41.811 39.245.811h227c16.835 0 29.34-.002 39.245-.811 9.881-.807 16.998-2.408 23.086-5.511a57.987 57.987 0 0 0 25.347-25.347c3.103-6.088 4.704-13.205 5.511-23.086.809-9.905.811-22.41.811-39.245V96c0-16.835-.002-29.34-.811-39.245-.807-9.882-2.408-16.998-5.511-23.086a57.993 57.993 0 0 0-25.347-25.347c-6.088-3.103-13.205-4.704-23.086-5.511C352.34 2 339.835 2 323 2H96c-16.835 0-29.34.002-39.245.81-9.882.808-16.998 2.41-23.086 5.512A58 58 0 0 0 8.322 33.669C5.219 39.757 3.618 46.874 2.81 56.755zm17.742 2.81c.555-6.794 1.678-12.025 4.026-16.633a42 42 0 0 1 18.354-18.354c4.608-2.348 9.84-3.471 16.633-4.026C66.317 20 74.785 20 85.906 20h14.912C106.441 20 111 24.559 111 30.182 111 41.127 119.873 50 130.818 50h157.364C299.127 50 308 41.127 308 30.182 308 24.559 312.559 20 318.182 20h14.912c11.122 0 19.589 0 26.341.552 6.794.555 12.025 1.678 16.633 4.026a42 42 0 0 1 18.354 18.354c2.348 4.608 3.471 9.84 4.026 16.633.552 6.752.552 15.22.552 26.341v684.188c0 11.122 0 19.589-.552 26.341-.555 6.794-1.678 12.025-4.026 16.633a41.998 41.998 0 0 1-18.354 18.354c-4.608 2.348-9.839 3.471-16.633 4.026-6.752.552-15.22.552-26.343.552H85.908c-11.123 0-19.59 0-26.343-.552-6.793-.555-12.025-1.678-16.633-4.026a42 42 0 0 1-18.354-18.354c-2.348-4.608-3.471-9.839-4.026-16.633C20 789.683 20 781.216 20 770.094V85.906c0-11.122 0-19.59.552-26.34zM0 96c0-33.603 0-50.405 6.54-63.24A60 60 0 0 1 32.76 6.54C45.596 0 62.398 0 96 0h227c33.603 0 50.405 0 63.239 6.54a59.996 59.996 0 0 1 26.221 26.22C419 45.596 419 62.398 419 96v664c0 33.603 0 50.405-6.54 63.239a59.993 59.993 0 0 1-26.221 26.221C373.405 856 356.603 856 323 856H96c-33.603 0-50.405 0-63.24-6.54a59.996 59.996 0 0 1-26.22-26.221C0 810.405 0 793.603 0 760V96zm22-10c0-22.402 0-33.603 4.36-42.16a40 40 0 0 1 17.48-17.48C52.397 22 63.598 22 86 22h14.818A8.182 8.182 0 0 1 109 30.182C109 42.232 118.768 52 130.818 52h157.364C300.232 52 310 42.232 310 30.182A8.182 8.182 0 0 1 318.182 22H333c22.402 0 33.603 0 42.16 4.36a40.002 40.002 0 0 1 17.48 17.48C397 52.397 397 63.598 397 86v684c0 22.402 0 33.603-4.36 42.16a40.003 40.003 0 0 1-17.48 17.48C366.603 834 355.402 834 333 834H86c-22.402 0-33.603 0-42.16-4.36a40.002 40.002 0 0 1-17.48-17.48C22 803.603 22 792.402 22 770V86z" fill="#E2E3E5"></path><path d="M243 33a6 6 0 1 0 0-12 6 6 0 0 0 0 12zm-69-10a4 4 0 0 0 0 8h52a4 4 0 0 0 0-8h-52z" fill="#E2E3E5"></path><rect x="142" y="821" width="135" height="5" rx="2.5" fill="#000"></rect></svg>