<svg width="43" height="42" viewBox="0 0 43 42" fill="none" xmlns="http://www.w3.org/2000/svg">
<rect y="3.75" width="38" height="38" rx="10" fill="#605DCE"/>
<path d="M23 33.5H10C9.04 33.5 8.25 32.71 8.25 31.75V18.75C8.25 14.33 10.58 12 15 12H23C27.42 12 29.75 14.33 29.75 18.75V26.75C29.75 31.17 27.42 33.5 23 33.5ZM15 13.5C11.42 13.5 9.75 15.17 9.75 18.75V31.75C9.75 31.89 9.86 32 10 32H23C26.58 32 28.25 30.33 28.25 26.75V18.75C28.25 15.17 26.58 13.5 23 13.5H15Z" fill="white"/>
<path d="M24 21H14C13.59 21 13.25 20.66 13.25 20.25C13.25 19.84 13.59 19.5 14 19.5H24C24.41 19.5 24.75 19.84 24.75 20.25C24.75 20.66 24.41 21 24 21Z" fill="white"/>
<path d="M21 26H14C13.59 26 13.25 25.66 13.25 25.25C13.25 24.84 13.59 24.5 14 24.5H21C21.41 24.5 21.75 24.84 21.75 25.25C21.75 25.66 21.41 26 21 26Z" fill="white"/>
<circle cx="33.5" cy="9.75" r="9.5" fill="white"/>
<path d="M33.25 1.25C31.6183 1.25 30.0233 1.73385 28.6665 2.64038C27.3098 3.5469 26.2524 4.83537 25.628 6.34286C25.0036 7.85035 24.8402 9.50915 25.1585 11.1095C25.4769 12.7098 26.2626 14.1798 27.4164 15.3336C28.5702 16.4874 30.0402 17.2732 31.6405 17.5915C33.2409 17.9098 34.8997 17.7464 36.4071 17.122C37.9146 16.4976 39.2031 15.4402 40.1096 14.0835C41.0162 12.7268 41.5 11.1317 41.5 9.5C41.4974 7.31276 40.6274 5.21584 39.0808 3.66922C37.5342 2.1226 35.4372 1.25258 33.25 1.25ZM36.4315 11.6218C36.5031 11.6909 36.5603 11.7737 36.5996 11.8652C36.6389 11.9567 36.6596 12.0551 36.6604 12.1547C36.6613 12.2543 36.6423 12.353 36.6046 12.4452C36.5669 12.5374 36.5112 12.6211 36.4408 12.6915C36.3704 12.762 36.2866 12.8177 36.1945 12.8554C36.1023 12.8931 36.0035 12.9121 35.904 12.9112C35.8044 12.9103 35.706 12.8896 35.6145 12.8503C35.5229 12.811 35.4402 12.7539 35.371 12.6823L33.25 10.5605L31.129 12.6823C30.9876 12.8189 30.7981 12.8945 30.6015 12.8928C30.4048 12.891 30.2167 12.8122 30.0776 12.6731C29.9386 12.5341 29.8597 12.3459 29.858 12.1493C29.8563 11.9527 29.9319 11.7632 30.0685 11.6218L32.1895 9.5L30.0685 7.37825C29.9969 7.30906 29.9397 7.22631 29.9004 7.1348C29.8611 7.0433 29.8404 6.94489 29.8396 6.8453C29.8387 6.74572 29.8577 6.64696 29.8954 6.55478C29.9331 6.46261 29.9888 6.37887 30.0592 6.30845C30.1296 6.23803 30.2134 6.18234 30.3055 6.14463C30.3977 6.10692 30.4965 6.08795 30.5961 6.08881C30.6956 6.08968 30.7941 6.11037 30.8856 6.14967C30.9771 6.18898 31.0598 6.24612 31.129 6.31775L33.25 8.4395L35.371 6.31775C35.4402 6.24612 35.5229 6.18898 35.6145 6.14967C35.706 6.11037 35.8044 6.08968 35.904 6.08881C36.0035 6.08795 36.1023 6.10692 36.1945 6.14463C36.2866 6.18234 36.3704 6.23803 36.4408 6.30845C36.5112 6.37887 36.5669 6.46261 36.6046 6.55478C36.6423 6.64696 36.6613 6.74572 36.6604 6.8453C36.6596 6.94489 36.6389 7.0433 36.5996 7.1348C36.5603 7.22631 36.5031 7.30906 36.4315 7.37825L34.3105 9.5L36.4315 11.6218Z" fill="#FF743C"/>
</svg>
