<svg width="38" height="39" viewBox="0 0 38 39" fill="none" xmlns="http://www.w3.org/2000/svg">
<rect y="0.5" width="38" height="38" rx="10" fill="#50CCC5"/>
<path d="M21.8931 10.038C21.2652 9.28132 20.2821 8.81126 19.3274 8.81126H16.802C17.3703 7.90554 17.7981 6.99412 18.0587 6.12623C18.4565 4.80185 18.4426 3.64735 18.0185 2.78755C17.5407 1.81912 16.5726 1.28577 15.2925 1.28577C15.0013 1.28577 14.7389 1.46141 14.628 1.73058C13.6312 4.14814 11.0314 7.62285 8.58198 9.91185C8.33204 9.04364 7.53104 8.40647 6.5835 8.40647H3.50635C2.35954 8.40647 1.42651 9.3395 1.42651 10.4863V19.6344C1.42651 20.7812 2.35954 21.7143 3.50635 21.7143H6.5835C7.28505 21.7143 7.90613 21.3647 8.28303 20.831C8.85318 21.3796 9.60903 21.7143 10.4373 21.7143H18.1854C19.042 21.7143 19.8048 21.3495 20.3914 20.6595C20.8749 20.0907 21.2183 19.3222 21.3844 18.4372L22.5265 12.3536C22.6797 11.5373 22.4548 10.715 21.8931 10.038ZM7.22579 19.6345C7.22579 19.9886 6.93766 20.2768 6.5835 20.2768H3.50635C3.15219 20.2768 2.86401 19.9886 2.86401 19.6345V10.4863C2.86401 10.1321 3.15219 9.84401 3.50635 9.84401H6.5835C6.93766 9.84401 7.22579 10.1321 7.22579 10.4863V19.6345ZM21.1137 12.0884L19.9717 18.172C19.7806 19.1896 19.2111 20.2768 18.1854 20.2768H10.4372C9.45908 20.2768 8.66334 19.3921 8.66334 18.3046V11.7577C11.3726 9.50854 14.4068 5.64575 15.7463 2.75862C16.4609 2.87955 16.6572 3.27742 16.7293 3.42351C17.1958 4.36916 16.8087 6.54657 14.8562 9.0926C14.6897 9.30971 14.6609 9.6026 14.782 9.84797C14.9031 10.0933 15.1529 10.2487 15.4266 10.2487H19.3275C19.8576 10.2487 20.4304 10.5263 20.7868 10.9559C20.9875 11.1978 21.2071 11.5906 21.1137 12.0884Z" fill="white"/>
</svg>
