<svg width="43" height="42" viewBox="0 0 43 42" fill="none" xmlns="http://www.w3.org/2000/svg">
<rect y="3.75" width="38" height="38" rx="10" fill="#5BC949"/>
<path d="M23 33.5H10C9.04 33.5 8.25 32.71 8.25 31.75V18.75C8.25 14.33 10.58 12 15 12H23C27.42 12 29.75 14.33 29.75 18.75V26.75C29.75 31.17 27.42 33.5 23 33.5ZM15 13.5C11.42 13.5 9.75 15.17 9.75 18.75V31.75C9.75 31.89 9.86 32 10 32H23C26.58 32 28.25 30.33 28.25 26.75V18.75C28.25 15.17 26.58 13.5 23 13.5H15Z" fill="white"/>
<path d="M24 21H14C13.59 21 13.25 20.66 13.25 20.25C13.25 19.84 13.59 19.5 14 19.5H24C24.41 19.5 24.75 19.84 24.75 20.25C24.75 20.66 24.41 21 24 21Z" fill="white"/>
<path d="M21 26H14C13.59 26 13.25 25.66 13.25 25.25C13.25 24.84 13.59 24.5 14 24.5H21C21.41 24.5 21.75 24.84 21.75 25.25C21.75 25.66 21.41 26 21 26Z" fill="white"/>

</svg>
