<svg width="38" height="39" viewBox="0 0 38 39" fill="none" xmlns="http://www.w3.org/2000/svg">
<rect y="0.5" width="38" height="38" rx="10" fill="#B61AFF"/>
<path d="M28.7809 13.5783H25.0592V9.71909C25.0592 8.42328 24.5445 7.18055 23.6282 6.26428C22.7119 5.34801 21.4692 4.83325 20.1734 4.83325H9.21921C7.92415 4.83567 6.68282 5.35121 5.76708 6.26696C4.85133 7.1827 4.3358 8.42403 4.33337 9.71909V18.6658C4.3349 19.644 4.66721 20.593 5.2763 21.3585C5.88539 22.1241 6.73546 22.6611 7.68837 22.8824V23.4691C7.68671 23.8294 7.78527 24.1832 7.97304 24.4907C8.16082 24.7983 8.43041 25.0476 8.75171 25.2108C9.06829 25.3659 9.42068 25.4333 9.77216 25.4058C10.1236 25.3784 10.4613 25.2573 10.75 25.0549L12.9134 23.5058V26.8333C12.9158 28.1283 13.4313 29.3696 14.3471 30.2854C15.2628 31.2011 16.5041 31.7167 17.7992 31.7191H24.2984L27.25 33.7999C27.5436 34.0077 27.8884 34.1312 28.2471 34.1571C28.6058 34.1829 28.9647 34.1101 29.285 33.9466C29.6057 33.7826 29.8747 33.5331 30.0623 33.2257C30.25 32.9183 30.349 32.5651 30.3484 32.2049V31.6183C31.293 31.3902 32.1336 30.8515 32.7353 30.0885C33.3371 29.3255 33.6651 28.3825 33.6667 27.4108V18.4641C33.6643 17.169 33.1488 15.9277 32.233 15.012C31.3173 14.0962 30.0759 13.5807 28.7809 13.5783ZM12.9409 18.4641V21.1408C12.8869 21.1605 12.8347 21.1851 12.785 21.2141L9.64087 23.4691C9.64087 21.5533 9.64087 21.0399 8.66004 21.0399C8.03037 21.0399 7.42649 20.7898 6.98125 20.3445C6.53601 19.8993 6.28587 19.2954 6.28587 18.6658V9.71909C6.28587 8.94112 6.59492 8.19501 7.14503 7.64491C7.69513 7.0948 8.44124 6.78575 9.21921 6.78575H20.1734C20.9513 6.78575 21.6974 7.0948 22.2476 7.64491C22.7977 8.19501 23.1067 8.94112 23.1067 9.71909V13.5783H17.8359C16.5392 13.5782 15.2956 14.0927 14.3778 15.0087C13.4601 15.9247 12.9433 17.1674 12.9409 18.4641ZM31.7142 27.4108C31.7142 28.0404 31.4641 28.6443 31.0188 29.0895C30.5736 29.5348 29.9697 29.7849 29.34 29.7849C29.0799 29.7849 28.8304 29.8883 28.6465 30.0722C28.4625 30.2561 28.3592 30.5056 28.3592 30.7658V32.2141L25.215 29.9683C25.0493 29.8496 24.8506 29.7855 24.6467 29.7849H17.8359C17.0579 29.7849 16.3118 29.4759 15.7617 28.9258C15.2116 28.3757 14.9025 27.6296 14.9025 26.8516V18.4641C14.9025 17.6861 15.2116 16.94 15.7617 16.3899C16.3118 15.8398 17.0579 15.5308 17.8359 15.5308H28.7809C29.5588 15.5308 30.3049 15.8398 30.8551 16.3899C31.4052 16.94 31.7142 17.6861 31.7142 18.4641V27.4108Z" fill="white"/>
<path fill-rule="evenodd" clip-rule="evenodd" d="M26.8192 21.7091H23.8858V18.7666L19.9808 23.6616H22.9142V26.5949L26.8192 21.7091Z" fill="white"/>
</svg>
