<svg width="19" height="19" viewBox="0 0 19 19" fill="none" xmlns="http://www.w3.org/2000/svg">
<path d="M6.72917 9.896L12.2708 9.896" stroke="#C8D0EF" stroke-width="1.06519" stroke-linecap="round"/>
<path d="M6.72917 12.2708L9.89584 12.2708" stroke="#C8D0EF" stroke-width="1.06519" stroke-linecap="round"/>
<path d="M4.35417 5.32745C4.35417 4.43261 4.35417 3.98519 4.52832 3.6434C4.6815 3.34276 4.92593 3.09833 5.22658 2.94514C5.56836 2.771 6.01578 2.771 6.91063 2.771H9.62859C10.0194 2.771 10.2148 2.771 10.3987 2.81514C10.5617 2.85428 10.7176 2.91884 10.8605 3.00645C11.0218 3.10525 11.1599 3.24342 11.4363 3.51976L13.8971 5.98056C14.1734 6.2569 14.3116 6.39507 14.4104 6.55631C14.498 6.69927 14.5626 6.85513 14.6017 7.01816C14.6458 7.20204 14.6458 7.39744 14.6458 7.78825V13.6729C14.6458 14.5677 14.6458 15.0151 14.4717 15.3569C14.3185 15.6576 14.0741 15.902 13.7734 16.0552C13.4316 16.2293 12.9842 16.2293 12.0894 16.2293H6.91063C6.01578 16.2293 5.56836 16.2293 5.22658 16.0552C4.92593 15.902 4.6815 15.6576 4.52832 15.3569C4.35417 15.0151 4.35417 14.5677 4.35417 13.6729V5.32745Z" stroke="#C8D0EF" stroke-width="1.06519"/>
<path d="M9.89583 2.771V4.96454C9.89583 5.85938 9.89583 6.30681 10.07 6.64859C10.2232 6.94923 10.4676 7.19366 10.7682 7.34685C11.11 7.521 11.5574 7.521 12.4523 7.521H14.6458" stroke="#C8D0EF" stroke-width="1.06519"/>
</svg>
