<svg width="24" height="25" viewBox="0 0 24 25" fill="none" xmlns="http://www.w3.org/2000/svg">
<path d="M12 21.75H7C3.35 21.75 1.25 19.65 1.25 16V9C1.25 5.35 3.35 3.25 7 3.25H17C20.65 3.25 22.75 5.35 22.75 9V12C22.75 12.41 22.41 12.75 22 12.75C21.59 12.75 21.25 12.41 21.25 12V9C21.25 6.14 19.86 4.75 17 4.75H7C4.14 4.75 2.75 6.14 2.75 9V16C2.75 18.86 4.14 20.25 7 20.25H12C12.41 20.25 12.75 20.59 12.75 21C12.75 21.41 12.41 21.75 12 21.75Z" fill="#2E4DBA"/>
<path d="M11.9998 13.37C11.1598 13.37 10.3098 13.11 9.65978 12.58L6.52978 10.08C6.20978 9.81996 6.14978 9.34997 6.40978 9.02997C6.66978 8.70997 7.13977 8.65997 7.45977 8.90997L10.5898 11.41C11.3498 12.02 12.6398 12.02 13.3998 11.41L16.5298 8.90997C16.8498 8.64997 17.3198 8.69997 17.5798 9.02997C17.8398 9.34997 17.7898 9.82996 17.4598 10.08L14.3298 12.58C13.6898 13.11 12.8398 13.37 11.9998 13.37Z" fill="#2E4DBA"/>
<path d="M15.8201 22.2801C15.4401 22.2801 15.0801 22.1401 14.8201 21.8801C14.5101 21.5701 14.3701 21.1201 14.4401 20.6501L14.6301 19.3001C14.6801 18.9501 14.8901 18.5301 15.1401 18.2801L18.68 14.7401C19.16 14.2601 19.6301 14.0101 20.1401 13.9601C20.7601 13.9001 21.38 14.1601 21.96 14.7401C22.54 15.3201 22.8 15.9301 22.74 16.5601C22.69 17.0601 22.43 17.5401 21.96 18.0201L18.4201 21.5601C18.1701 21.8101 17.75 22.0201 17.4 22.0701L16.05 22.2601C15.97 22.2701 15.9001 22.2801 15.8201 22.2801ZM20.31 15.4501C20.3 15.4501 20.29 15.4501 20.28 15.4501C20.14 15.4601 19.95 15.5901 19.74 15.8001L16.2001 19.3401C16.1701 19.3701 16.12 19.4701 16.12 19.5101L15.9401 20.7601L17.1901 20.5801C17.2301 20.5701 17.33 20.5201 17.36 20.4901L20.9 16.9501C21.11 16.7301 21.24 16.5501 21.2501 16.4101C21.2701 16.2101 21.07 15.9701 20.9 15.8001C20.74 15.6401 20.51 15.4501 20.31 15.4501Z" fill="#2E4DBA"/>
<!-- <path d="M20.9201 18.7499C20.8501 18.7499 20.7801 18.7399 20.7201 18.7199C19.4001 18.3499 18.3501 17.2999 17.9801 15.9799C17.8701 15.5799 18.1001 15.1699 18.5001 15.0499C18.9001 14.9399 19.3101 15.1699 19.4201 15.5699C19.6501 16.3899 20.3001 17.0399 21.1201 17.2699C21.5201 17.3799 21.7501 17.7999 21.6401 18.1999C21.5501 18.5299 21.2501 18.7499 20.9201 18.7499Z" fill="#2E4DBA"/> -->
</svg>
